<?xml version="1.0" encoding="UTF-8" standalone="no"?>
<svg
   xmlns:dc="http://purl.org/dc/elements/1.1/"
   xmlns:cc="http://creativecommons.org/ns#"
   xmlns:rdf="http://www.w3.org/1999/02/22-rdf-syntax-ns#"
   xmlns:svg="http://www.w3.org/2000/svg"
   xmlns="http://www.w3.org/2000/svg"
   viewBox="0 0 1573.6133 430.29733"
   height="430.29733"
   width="1573.6133"
   xml:space="preserve"
   id="svg2"
   version="1.1"><metadata
     id="metadata8"><rdf:RDF><cc:Work
         rdf:about=""><dc:format>image/svg+xml</dc:format><dc:type
           rdf:resource="http://purl.org/dc/dcmitype/StillImage" /></cc:Work></rdf:RDF></metadata><defs
     id="defs6"><clipPath
       id="clipPath18"
       clipPathUnits="userSpaceOnUse"><path
         id="path16"
         d="M 0,322.723 H 1180.213 V 0 H 0 Z" /></clipPath><clipPath
       id="clipPath42"
       clipPathUnits="userSpaceOnUse"><path
         id="path40"
         d="m 131.993,168.869 c 0,-54.333 41.69,-100.542 103.784,-100.542 v 0 c 7.087,0 22.37,1.183 29.089,2.281 v 0 l 48.751,-28.227 v 49.046 c 22.597,19.242 34.594,45.964 34.594,77.442 v 0 c 0,54.333 -50.253,98.379 -112.434,98.379 v 0 c -51.694,0 -103.784,-44.046 -103.784,-98.379" /></clipPath><clipPath
       id="clipPath50"
       clipPathUnits="userSpaceOnUse"><path
         id="path48"
         d="M 195.531,325.658 H 402.239 V 118.949 H 195.531 Z" /></clipPath><clipPath
       id="clipPath66"
       clipPathUnits="userSpaceOnUse"><path
         id="path64"
         d="M 0,322.723 H 1180.213 V 0 H 0 Z" /></clipPath><clipPath
       id="clipPath90"
       clipPathUnits="userSpaceOnUse"><path
         id="path88"
         d="m 37.212,195.605 c 0,-35.206 13.418,-65.094 38.691,-86.612 v 0 -54.854 l 54.523,31.569 c 7.515,-1.229 24.608,-2.551 32.533,-2.551 v 0 c 69.448,0 116.073,51.68 116.073,112.448 v 0 c 0,60.767 -58.258,110.029 -116.073,110.029 v 0 c -69.543,0 -125.747,-49.262 -125.747,-110.029" /></clipPath><clipPath
       id="clipPath98"
       clipPathUnits="userSpaceOnUse"><path
         id="path96"
         d="M 13.0053,386.678 H 244.191 V 155.492 H 13.0053 Z" /></clipPath><clipPath
       id="clipPath114"
       clipPathUnits="userSpaceOnUse"><path
         id="path112"
         d="M 73.1142,286.935 H 304.967 V 21.1778 H 73.1142 Z" /></clipPath><clipPath
       id="clipPath130"
       clipPathUnits="userSpaceOnUse"><path
         id="path128"
         d="M 0,322.723 H 1180.213 V 0 H 0 Z" /></clipPath><clipPath
       id="clipPath138"
       clipPathUnits="userSpaceOnUse"><path
         id="path136"
         d="m 120.191,281.104 h 18.425 v -12.232 h -18.425 z" /></clipPath><clipPath
       id="clipPath154"
       clipPathUnits="userSpaceOnUse"><path
         id="path152"
         d="M 49.1562,274.081 H 106.333 V 191.639 H 49.1562 Z" /></clipPath><clipPath
       id="clipPath170"
       clipPathUnits="userSpaceOnUse"><path
         id="path168"
         d="m 299.189,217.413 h 39.977 v -91.126 h -39.977 z" /></clipPath></defs><g
     transform="matrix(1.3333333,0,0,-1.3333333,0,430.29733)"
     id="g10"><g
       id="g12"><g
         clip-path="url(#clipPath18)"
         id="g14"><g
           transform="translate(235.7779,68.3275)"
           id="g20"><path
             id="path22"
             style="fill:#f9a435;fill-opacity:1;fill-rule:evenodd;stroke:none"
             d="m 0,0 c 7.086,0 22.369,1.183 29.088,2.28 l 48.75,-28.226 V 23.1 c 22.598,19.241 34.595,45.963 34.595,77.442 0,54.333 -50.253,98.378 -112.433,98.378 -51.694,0 -103.785,-44.045 -103.785,-98.378 C -103.785,46.208 -62.095,0 0,0" /></g><g
           transform="translate(279.0216,167.7879)"
           id="g24"><path
             id="path26"
             style="fill:#ffffff;fill-opacity:1;fill-rule:nonzero;stroke:none"
             d="m 0,0 c 0,-7.166 5.808,-12.973 12.973,-12.973 7.165,0 12.973,5.807 12.973,12.973 0,7.165 -5.808,12.974 -12.973,12.974 C 5.808,12.974 0,7.165 0,0" /></g><g
           transform="translate(227.3443,167.7879)"
           id="g28"><path
             id="path30"
             style="fill:#ffffff;fill-opacity:1;fill-rule:nonzero;stroke:none"
             d="m 0,0 c 0,-7.166 5.808,-12.973 12.973,-12.973 7.165,0 12.973,5.807 12.973,12.973 0,7.165 -5.808,12.974 -12.973,12.974 C 5.808,12.974 0,7.165 0,0" /></g><g
           transform="translate(175.6671,167.7879)"
           id="g32"><path
             id="path34"
             style="fill:#ffffff;fill-opacity:1;fill-rule:nonzero;stroke:none"
             d="m 0,0 c 0,-7.166 5.809,-12.973 12.973,-12.973 7.165,0 12.973,5.807 12.973,12.973 0,7.165 -5.808,12.974 -12.973,12.974 C 5.809,12.974 0,7.165 0,0" /></g></g></g><g
       id="g36"><g
         clip-path="url(#clipPath42)"
         id="g38"><g
           id="g44"><g
             id="g46" /><g
             id="g58"><g
               style="opacity:0.17999303"
               id="g56"
               clip-path="url(#clipPath50)"><g
                 id="g54"
                 transform="translate(195.5309,222.3036)"><path
                   id="path52"
                   style="fill:#ffffff;fill-opacity:1;fill-rule:evenodd;stroke:none"
                   d="m 0,0 c 0,-57.081 46.273,-103.355 103.354,-103.355 57.081,0 103.354,46.274 103.354,103.355 0,57.081 -46.273,103.354 -103.354,103.354 C 46.273,103.354 0,57.081 0,0" /></g></g></g></g></g></g><g
       id="g60"><g
         clip-path="url(#clipPath66)"
         id="g62"><g
           transform="translate(162.9591,83.1576)"
           id="g68"><path
             id="path70"
             style="fill:#ffc56f;fill-opacity:1;fill-rule:evenodd;stroke:none"
             d="m 0,0 c -7.925,0 -25.018,1.322 -32.533,2.551 l -54.523,-31.57 v 54.854 c -25.273,21.519 -38.691,51.406 -38.691,86.613 0,60.766 56.204,110.028 125.747,110.028 57.815,0 116.074,-49.262 116.074,-110.028 C 116.074,51.68 69.448,0 0,0" /></g><g
           transform="translate(114.5948,194.3954)"
           id="g72"><path
             id="path74"
             style="fill:#ffffff;fill-opacity:1;fill-rule:nonzero;stroke:none"
             d="m 0,0 c 0,-8.013 -6.496,-14.509 -14.509,-14.509 -8.013,0 -14.51,6.496 -14.51,14.509 0,8.014 6.497,14.51 14.51,14.51 C -6.496,14.51 0,8.014 0,0" /></g><g
           transform="translate(172.3907,194.3954)"
           id="g76"><path
             id="path78"
             style="fill:#ffffff;fill-opacity:1;fill-rule:nonzero;stroke:none"
             d="m 0,0 c 0,-8.013 -6.496,-14.509 -14.509,-14.509 -8.013,0 -14.509,6.496 -14.509,14.509 0,8.014 6.496,14.51 14.509,14.51 C -6.496,14.51 0,8.014 0,0" /></g><g
           transform="translate(230.1876,194.3954)"
           id="g80"><path
             id="path82"
             style="fill:#ffffff;fill-opacity:1;fill-rule:nonzero;stroke:none"
             d="m 0,0 c 0,-8.013 -6.496,-14.509 -14.51,-14.509 -8.013,0 -14.509,6.496 -14.509,14.509 0,8.014 6.496,14.51 14.509,14.51 C -6.496,14.51 0,8.014 0,0" /></g></g></g><g
       id="g84"><g
         clip-path="url(#clipPath90)"
         id="g86"><g
           id="g92"><g
             id="g94" /><g
             id="g106"><g
               style="opacity:0.17999303"
               id="g104"
               clip-path="url(#clipPath98)"><g
                 id="g102"
                 transform="translate(244.191,271.0848)"><path
                   id="path100"
                   style="fill:#ffffff;fill-opacity:1;fill-rule:evenodd;stroke:none"
                   d="m 0,0 c 0,-63.841 -51.752,-115.593 -115.593,-115.593 -63.84,0 -115.593,51.752 -115.593,115.593 0,63.84 51.753,115.593 115.593,115.593 C -51.752,115.593 0,63.84 0,0" /></g></g></g></g><g
           id="g108"><g
             id="g110" /><g
             id="g122"><g
               style="opacity:0.30999804"
               id="g120"
               clip-path="url(#clipPath114)"><g
                 id="g118"
                 transform="translate(73.1144,43.0472)"><path
                   id="path116"
                   style="fill:#1e75bb;fill-opacity:1;fill-rule:evenodd;stroke:none"
                   d="m 0,0 26.971,64.118 c 0,0 11.62,31.501 58.037,21.362 50.512,-11.034 151.666,27.795 95.168,158.408 L 231.853,226.55 V -13.64 C 231.853,-13.64 31.278,-39.301 0,0" /></g></g></g></g></g></g><g
       id="g124"><g
         clip-path="url(#clipPath130)"
         id="g126"><g
           id="g132"><g
             id="g134" /><g
             id="g146"><g
               style="opacity:0.46000701"
               id="g144"
               clip-path="url(#clipPath138)"><g
                 id="g142"
                 transform="translate(126.1725,268.8719)"><path
                   id="path140"
                   style="fill:#ffffff;fill-opacity:1;fill-rule:nonzero;stroke:none"
                   d="m 0,0 c -3.086,0 -5.699,2.367 -5.961,5.494 -0.27,3.293 2.179,6.184 5.476,6.455 2.291,0.19 4.611,0.283 6.943,0.283 3.309,0 5.985,-2.679 5.985,-5.985 C 12.443,2.942 9.767,0.263 6.458,0.263 4.454,0.263 2.46,0.182 0.497,0.021 0.333,0.006 0.164,0 0,0" /></g></g></g></g><g
           id="g148"><g
             id="g150" /><g
             id="g162"><g
               style="opacity:0.46000701"
               id="g160"
               clip-path="url(#clipPath154)"><g
                 id="g158"
                 transform="translate(55.1417,191.6395)"><path
                   id="path156"
                   style="fill:#ffffff;fill-opacity:1;fill-rule:nonzero;stroke:none"
                   d="m 0,0 c -3.308,0 -5.985,2.68 -5.985,5.985 0,32.535 19.111,62.331 48.692,75.909 2.992,1.378 6.552,0.064 7.937,-2.944 1.38,-3.004 0.059,-6.554 -2.946,-7.933 C 22.361,59.383 5.985,33.858 5.985,5.985 5.985,2.68 3.308,0 0,0" /></g></g></g></g><g
           id="g164"><g
             id="g166" /><g
             id="g178"><g
               style="opacity:0.46000701"
               id="g176"
               clip-path="url(#clipPath170)"><g
                 id="g174"
                 transform="translate(329.4542,126.4622)"><path
                   id="path172"
                   style="fill:#ffffff;fill-opacity:1;fill-rule:nonzero;stroke:none"
                   d="m 0,0 c 3.149,-0.792 6.352,1.166 7.159,4.371 7.938,31.551 -2.988,65.026 -27.837,85.278 -2.513,2.055 -6.223,1.632 -8.275,-0.952 C -31,86.114 -30.608,82.354 -28.084,80.296 -6.801,62.945 2.563,34.27 -4.238,7.238 -5.044,4.033 -3.149,0.793 0,0" /></g></g></g></g><text
           id="text182"
           style="font-variant:normal;font-weight:bold;font-stretch:normal;font-size:195.88659668px;font-family:Nunito;-inkscape-font-specification:Nunito-Bold;writing-mode:lr-tb;fill:#ffc56f;fill-opacity:1;fill-rule:nonzero;stroke:none"
           transform="matrix(0.77008994,0,0,-1,427.3188,54.4727)"><tspan
             id="tspan180"
             y="0"
             x="0 141.17548 261.44986 381.72421 460.47064 567.81647 666.6217 773.96753 826.9549">AgoraTalk</tspan></text>
</g></g></g></svg>