<svg id="svg" version="1.1" xmlns="http://www.w3.org/2000/svg" xmlns:xlink="http://www.w3.org/1999/xlink" width="400" height="123.2" viewBox="0, 0, 400,123.2"><g id="svgg"><path id="path0" d="M92.100 28.956 C 92.045 29.011,92.000 29.550,92.000 30.154 C 92.000 35.928,90.023 42.717,86.721 48.282 L 85.812 49.814 86.287 50.311 C 86.947 51.002,87.500 52.174,87.500 52.883 C 87.500 53.212,87.575 53.527,87.667 53.584 C 87.779 53.653,87.779 53.790,87.667 53.999 C 87.575 54.171,87.500 54.514,87.500 54.762 C 87.500 57.595,82.014 59.885,80.167 57.824 C 79.564 57.151,79.293 57.161,78.429 57.888 C 63.420 70.513,39.796 68.476,27.049 53.458 C 26.368 52.656,25.729 52.000,25.630 52.000 C 25.408 52.000,25.598 57.797,25.841 58.436 C 25.928 58.667,26.000 59.221,26.000 59.668 C 26.000 60.115,26.065 60.521,26.145 60.570 C 26.224 60.619,26.341 61.186,26.405 61.830 C 26.468 62.473,26.591 63.000,26.677 63.000 C 26.763 63.000,26.833 63.185,26.833 63.411 C 26.833 63.848,27.236 65.223,27.505 65.706 C 27.594 65.865,27.667 66.128,27.668 66.289 C 27.668 66.451,27.781 66.798,27.918 67.061 C 28.055 67.323,28.167 67.604,28.167 67.685 C 28.167 67.955,28.744 69.167,28.873 69.167 C 28.943 69.167,29.004 69.298,29.010 69.458 C 29.015 69.619,29.201 70.087,29.422 70.500 C 29.644 70.912,29.873 71.381,29.932 71.542 C 29.991 71.702,30.105 71.833,30.186 71.833 C 30.267 71.833,30.333 71.921,30.333 72.027 C 30.333 72.252,31.348 73.890,31.539 73.972 C 31.609 74.003,31.667 74.123,31.667 74.238 C 31.667 74.354,31.823 74.629,32.014 74.849 C 32.205 75.070,32.524 75.465,32.723 75.728 C 34.022 77.448,36.177 79.765,37.292 80.639 L 38.000 81.195 38.000 89.921 C 38.000 95.312,38.061 98.685,38.160 98.746 C 38.410 98.900,39.000 98.454,39.000 98.110 C 39.000 97.940,39.107 97.564,39.238 97.275 C 39.967 95.663,40.333 94.814,40.333 94.736 C 40.333 94.688,40.476 94.334,40.649 93.949 C 40.823 93.565,41.165 92.763,41.410 92.167 C 41.654 91.571,41.967 90.821,42.105 90.500 C 42.243 90.179,42.426 89.748,42.511 89.542 C 42.824 88.788,43.617 86.907,43.865 86.333 C 43.964 86.104,44.105 85.767,44.180 85.583 C 44.254 85.400,44.461 84.912,44.640 84.500 C 44.819 84.087,45.164 83.262,45.407 82.667 C 46.039 81.114,46.171 80.856,46.849 79.833 C 50.067 74.980,56.618 73.097,64.583 74.736 C 66.651 75.161,67.268 75.216,70.000 75.221 C 73.802 75.228,75.495 74.989,79.750 73.844 C 93.873 70.041,102.026 56.627,99.737 40.959 C 99.371 38.455,99.467 38.467,100.566 41.058 C 103.340 47.598,103.853 55.277,101.987 62.342 C 101.709 63.391,101.423 64.475,101.351 64.750 C 100.825 66.743,98.779 70.947,97.147 73.388 C 96.218 74.776,96.088 75.165,96.552 75.168 C 96.661 75.168,96.938 75.266,97.167 75.384 C 97.518 75.566,99.702 76.281,101.583 76.829 C 101.858 76.909,102.833 77.090,103.750 77.231 C 109.008 78.037,109.825 78.037,115.083 77.231 C 116.000 77.090,116.975 76.909,117.250 76.829 C 119.299 76.232,121.279 75.591,121.430 75.477 C 121.529 75.402,121.903 75.279,122.262 75.204 C 122.715 75.110,122.934 74.969,122.977 74.743 C 123.011 74.563,123.092 74.379,123.157 74.333 C 123.306 74.229,123.833 72.611,123.833 72.260 C 123.833 72.117,123.901 72.000,123.984 72.000 C 124.067 72.000,124.188 71.606,124.253 71.125 C 124.318 70.644,124.428 70.175,124.498 70.083 C 124.568 69.992,124.680 69.504,124.746 69.000 C 124.812 68.496,124.901 67.933,124.945 67.750 C 125.506 65.383,125.545 58.370,125.002 57.320 C 124.927 57.175,124.812 56.555,124.747 55.943 C 124.681 55.330,124.568 54.792,124.496 54.747 C 124.424 54.703,124.313 54.291,124.250 53.833 C 124.187 53.375,124.067 53.000,123.984 53.000 C 123.901 53.000,123.833 52.854,123.833 52.677 C 123.833 52.499,123.758 52.307,123.667 52.250 C 123.575 52.193,123.500 52.032,123.500 51.890 C 123.500 51.749,123.380 51.360,123.234 51.025 C 122.694 49.790,121.934 48.248,121.824 48.167 C 121.667 48.050,121.424 47.285,121.481 47.083 C 121.507 46.992,121.472 46.973,121.403 47.041 C 121.245 47.199,120.495 45.976,120.623 45.769 C 120.675 45.684,120.632 45.669,120.526 45.734 C 120.420 45.799,120.333 45.779,120.333 45.688 C 120.333 45.598,120.238 45.425,120.122 45.304 C 120.005 45.182,119.687 44.776,119.413 44.401 C 118.027 42.498,114.210 38.617,113.465 38.353 C 113.277 38.286,112.797 37.920,112.348 37.498 C 111.700 36.890,107.331 34.333,106.940 34.333 C 106.805 34.333,106.669 34.277,106.639 34.208 C 106.542 33.991,104.323 33.000,103.933 33.000 C 103.787 33.000,103.667 32.932,103.667 32.848 C 103.667 32.764,103.367 32.645,103.001 32.583 C 102.635 32.522,102.293 32.403,102.241 32.319 C 102.189 32.235,101.968 32.167,101.750 32.167 C 101.532 32.167,101.309 32.096,101.256 32.010 C 101.203 31.923,100.804 31.801,100.371 31.739 C 99.938 31.676,99.508 31.569,99.417 31.502 C 99.325 31.435,98.950 31.328,98.583 31.265 C 98.217 31.202,97.729 31.111,97.500 31.063 C 97.271 31.014,96.746 30.935,96.333 30.888 C 95.921 30.840,95.512 30.733,95.425 30.651 C 95.338 30.568,94.958 30.500,94.580 30.500 C 93.974 30.500,93.816 30.412,93.245 29.754 C 92.582 28.993,92.276 28.779,92.100 28.956 M112.417 46.651 C 117.953 50.155,122.243 59.269,122.233 67.500 C 122.225 73.319,121.503 75.500,119.583 75.500 C 118.035 75.500,117.527 74.400,118.006 72.083 C 119.569 64.515,117.266 56.931,111.706 51.333 C 109.596 49.210,109.500 49.079,109.500 48.336 C 109.500 46.773,111.125 45.834,112.417 46.651 M167.583 55.116 C 167.217 55.272,166.818 55.497,166.696 55.616 C 166.575 55.736,166.425 55.835,166.363 55.836 C 165.910 55.847,163.946 58.410,163.729 59.273 C 163.675 59.489,163.579 59.667,163.516 59.667 C 163.454 59.667,163.261 60.098,163.087 60.625 C 162.914 61.152,162.714 61.662,162.644 61.758 C 162.573 61.854,162.464 62.248,162.403 62.633 C 162.341 63.018,162.225 63.333,162.145 63.333 C 162.065 63.333,162.000 63.516,162.000 63.740 C 162.000 63.964,161.929 64.191,161.843 64.244 C 161.757 64.297,161.635 64.678,161.574 65.089 C 161.512 65.501,161.402 65.874,161.330 65.919 C 161.257 65.964,161.146 66.375,161.083 66.834 C 161.020 67.292,160.909 67.667,160.836 67.667 C 160.763 67.667,160.664 67.910,160.615 68.208 C 160.496 68.948,160.159 70.188,159.984 70.534 C 159.904 70.691,159.790 71.141,159.730 71.534 C 159.670 71.928,159.567 72.325,159.501 72.417 C 159.435 72.508,159.251 73.108,159.093 73.750 C 158.935 74.392,158.743 75.037,158.666 75.184 C 158.590 75.331,158.476 75.800,158.412 76.226 C 158.348 76.651,158.237 77.000,158.166 77.000 C 158.095 77.000,157.997 77.244,157.949 77.542 C 157.829 78.281,157.492 79.522,157.317 79.868 C 157.238 80.024,157.124 80.474,157.064 80.868 C 157.004 81.261,156.900 81.658,156.834 81.750 C 156.768 81.842,156.585 82.442,156.426 83.083 C 156.268 83.725,156.076 84.370,156.000 84.517 C 155.923 84.664,155.809 85.133,155.745 85.559 C 155.681 85.985,155.571 86.333,155.499 86.333 C 155.428 86.333,155.330 86.577,155.282 86.875 C 155.169 87.576,154.829 88.845,154.668 89.172 C 154.599 89.313,154.491 89.688,154.428 90.005 C 154.365 90.323,154.250 90.733,154.173 90.917 C 153.538 92.414,153.278 95.641,153.695 96.850 C 154.033 97.828,154.977 99.000,155.428 99.000 C 155.544 99.000,155.670 99.094,155.709 99.208 C 155.868 99.685,159.359 99.478,159.919 98.958 C 160.191 98.706,160.462 98.500,160.521 98.500 C 160.580 98.500,160.673 98.369,160.729 98.208 C 160.784 98.048,160.974 97.692,161.150 97.417 C 161.327 97.142,161.523 96.598,161.588 96.208 C 161.652 95.819,161.771 95.500,161.852 95.500 C 161.934 95.500,162.000 95.317,162.000 95.093 C 162.000 94.869,162.070 94.643,162.155 94.591 C 162.240 94.538,162.362 94.082,162.424 93.579 C 162.487 93.075,162.598 92.626,162.670 92.581 C 162.742 92.537,162.853 92.050,162.917 91.500 C 162.980 90.950,163.100 90.500,163.183 90.500 C 163.266 90.500,163.333 90.275,163.333 90.000 L 163.333 89.500 169.797 89.500 L 176.261 89.500 176.475 90.292 C 176.592 90.727,176.753 91.204,176.830 91.351 C 176.908 91.497,177.024 91.966,177.088 92.392 C 177.152 92.818,177.261 93.167,177.331 93.167 C 177.400 93.167,177.506 93.539,177.567 93.993 C 177.627 94.448,177.749 94.865,177.838 94.920 C 177.927 94.975,178.000 95.203,178.000 95.427 C 178.000 95.650,178.075 95.833,178.167 95.833 C 178.258 95.833,178.333 95.967,178.333 96.130 C 178.333 97.061,179.937 99.228,180.784 99.440 C 185.087 100.520,187.985 95.957,185.832 91.494 C 185.764 91.353,185.655 90.922,185.589 90.536 C 185.524 90.151,185.403 89.793,185.319 89.741 C 185.235 89.689,185.167 89.510,185.167 89.343 C 185.167 89.010,184.714 87.404,184.505 86.994 C 184.433 86.853,184.319 86.405,184.250 86.000 C 184.181 85.595,184.065 85.147,183.991 85.006 C 183.852 84.742,183.538 83.597,183.383 82.792 C 183.335 82.540,183.239 82.333,183.170 82.333 C 183.102 82.333,182.999 81.997,182.943 81.587 C 182.887 81.176,182.770 80.708,182.685 80.545 C 182.599 80.383,182.399 79.725,182.240 79.083 C 182.082 78.442,181.898 77.842,181.831 77.750 C 181.764 77.658,181.657 77.229,181.595 76.796 C 181.532 76.362,181.410 75.964,181.324 75.911 C 181.237 75.857,181.167 75.677,181.167 75.509 C 181.167 75.170,180.712 73.565,180.499 73.149 C 180.423 73.003,180.309 72.534,180.245 72.108 C 180.181 71.682,180.072 71.333,180.003 71.333 C 179.933 71.333,179.827 70.961,179.767 70.507 C 179.706 70.052,179.584 69.635,179.495 69.580 C 179.406 69.525,179.333 69.260,179.333 68.990 C 179.333 68.721,179.267 68.500,179.186 68.500 C 179.104 68.500,178.986 68.151,178.922 67.726 C 178.858 67.300,178.747 66.831,178.676 66.684 C 178.453 66.222,178.000 64.717,178.000 64.436 C 178.000 64.288,177.935 64.167,177.855 64.167 C 177.775 64.167,177.661 63.863,177.602 63.493 C 177.542 63.122,177.427 62.691,177.345 62.534 C 177.263 62.378,177.071 61.875,176.918 61.417 C 176.377 59.793,175.404 57.792,174.881 57.228 C 174.672 57.001,174.500 56.756,174.500 56.682 C 174.500 56.483,173.470 55.667,173.218 55.667 C 173.098 55.667,173.000 55.592,173.000 55.500 C 173.000 55.408,172.894 55.333,172.764 55.333 C 172.634 55.333,172.497 55.240,172.458 55.125 C 172.340 54.771,168.414 54.764,167.583 55.116 M294.502 54.955 C 294.276 55.045,293.399 55.911,292.875 56.561 C 292.760 56.703,292.667 56.931,292.667 57.066 C 292.667 57.202,292.592 57.360,292.500 57.417 C 292.177 57.617,292.303 60.272,292.673 61.060 C 293.084 61.934,293.900 62.802,294.439 62.937 C 294.656 62.992,294.833 63.103,294.833 63.185 C 294.833 63.267,296.429 63.333,298.417 63.333 L 302.000 63.333 302.000 78.823 C 302.000 87.343,302.064 94.353,302.143 94.402 C 302.221 94.450,302.327 94.890,302.377 95.378 C 302.527 96.831,303.962 98.898,305.136 99.351 C 307.004 100.072,310.025 98.869,310.434 97.242 C 310.490 97.017,310.598 96.833,310.675 96.833 C 310.751 96.833,310.864 96.495,310.926 96.081 C 310.988 95.668,311.105 95.288,311.186 95.238 C 311.270 95.186,311.333 88.282,311.333 79.240 L 311.333 63.333 314.903 63.333 C 316.866 63.333,318.497 63.277,318.528 63.208 C 318.558 63.140,318.846 62.949,319.167 62.785 C 319.777 62.472,320.667 61.379,320.667 60.942 C 320.667 60.801,320.742 60.640,320.833 60.583 C 321.624 60.094,320.742 56.655,319.529 55.500 L 318.917 54.917 306.833 54.887 C 300.188 54.870,294.638 54.901,294.502 54.955 M347.583 55.095 C 346.931 55.435,346.333 56.001,346.333 56.279 C 346.333 56.401,346.275 56.500,346.204 56.500 C 345.526 56.500,345.491 57.622,345.538 77.686 L 345.583 96.917 346.045 97.764 C 346.876 99.290,347.124 99.417,349.298 99.417 C 350.452 99.417,351.225 99.348,351.298 99.238 C 351.363 99.139,351.549 99.010,351.711 98.950 C 351.873 98.891,352.080 98.671,352.171 98.463 C 352.263 98.254,352.495 97.821,352.688 97.501 C 352.887 97.171,353.077 96.499,353.126 95.954 C 353.174 95.424,353.278 94.951,353.357 94.902 C 353.544 94.786,353.544 59.713,353.357 59.598 C 353.278 59.549,353.175 59.034,353.128 58.454 C 353.034 57.273,352.825 56.804,351.945 55.793 C 351.139 54.867,348.756 54.485,347.583 55.095 M360.833 54.946 C 359.939 55.323,358.833 57.100,358.833 58.160 C 358.833 58.428,358.758 58.693,358.667 58.750 C 358.557 58.818,358.500 65.165,358.500 77.250 C 358.500 89.335,358.557 95.682,358.667 95.750 C 358.758 95.807,358.833 96.073,358.833 96.342 C 358.833 96.874,359.334 98.167,359.539 98.167 C 359.609 98.167,359.671 98.260,359.676 98.375 C 359.712 99.180,362.087 99.777,363.879 99.432 C 364.585 99.296,365.375 98.580,365.737 97.750 C 365.897 97.383,366.115 96.933,366.222 96.750 C 366.356 96.520,366.443 94.525,366.500 90.333 L 366.583 84.250 367.185 85.333 C 367.516 85.929,367.995 86.792,368.249 87.250 C 368.503 87.708,368.766 88.158,368.834 88.250 C 368.901 88.342,369.202 88.867,369.503 89.417 C 369.804 89.967,370.095 90.454,370.150 90.500 C 370.254 90.588,370.937 91.812,371.241 92.457 C 371.337 92.663,371.473 92.831,371.542 92.832 C 371.610 92.833,371.667 92.940,371.667 93.071 C 371.667 93.202,371.760 93.412,371.875 93.537 C 372.080 93.762,372.473 94.435,372.971 95.417 C 373.502 96.464,375.607 98.833,376.007 98.833 C 376.082 98.833,376.274 98.965,376.435 99.125 C 376.887 99.578,378.728 99.516,379.535 99.021 C 381.854 97.599,381.796 94.586,379.382 90.983 C 378.927 90.305,378.115 89.037,377.577 88.167 C 377.039 87.296,376.549 86.546,376.488 86.500 C 376.428 86.454,376.326 86.248,376.261 86.042 C 376.197 85.835,376.074 85.667,375.989 85.667 C 375.903 85.667,375.833 85.594,375.833 85.505 C 375.833 85.349,374.858 83.838,374.647 83.667 C 374.591 83.621,374.496 83.428,374.437 83.238 C 374.378 83.048,374.176 82.728,373.989 82.527 C 373.681 82.196,373.673 82.136,373.908 81.902 C 374.050 81.759,374.167 81.590,374.167 81.525 C 374.167 81.461,374.373 81.176,374.625 80.892 C 374.877 80.608,375.533 79.833,376.083 79.170 C 376.633 78.506,377.271 77.765,377.500 77.523 C 377.729 77.281,378.122 76.809,378.373 76.473 C 378.623 76.137,378.927 75.762,379.047 75.639 C 379.491 75.188,380.333 73.849,380.333 73.595 C 380.333 73.451,380.408 73.333,380.500 73.333 C 380.705 73.333,380.725 71.223,380.522 71.097 C 380.442 71.047,380.330 70.773,380.272 70.486 C 379.905 68.652,376.949 67.495,375.343 68.557 C 374.381 69.194,372.904 70.808,372.630 71.521 C 372.565 71.693,372.433 71.833,372.339 71.833 C 372.244 71.833,372.167 71.911,372.167 72.007 C 372.167 72.171,372.036 72.359,371.542 72.911 C 371.427 73.038,371.333 73.194,371.333 73.256 C 371.333 73.318,371.165 73.572,370.958 73.820 C 370.752 74.068,370.433 74.480,370.250 74.736 C 370.067 74.991,369.729 75.446,369.500 75.748 C 369.271 76.049,368.971 76.465,368.833 76.671 C 368.696 76.877,368.432 77.242,368.247 77.482 C 368.062 77.721,367.650 78.310,367.330 78.791 C 367.011 79.272,366.694 79.666,366.625 79.666 C 366.556 79.667,366.499 74.960,366.498 69.208 C 366.495 59.489,366.473 58.685,366.188 57.833 C 365.744 56.512,365.445 55.833,365.304 55.833 C 365.237 55.833,364.978 55.629,364.728 55.380 C 364.271 54.923,361.597 54.625,360.833 54.946 M109.087 58.425 C 112.332 59.961,112.204 64.758,108.879 66.183 C 107.295 66.862,105.543 66.507,104.242 65.245 C 100.768 61.872,104.693 56.347,109.087 58.425 M170.000 64.833 C 170.000 65.108,170.065 65.333,170.145 65.333 C 170.225 65.333,170.341 65.781,170.403 66.328 C 170.465 66.875,170.580 67.363,170.659 67.412 C 170.738 67.461,170.854 67.875,170.917 68.333 C 170.980 68.791,171.099 69.208,171.182 69.260 C 171.265 69.311,171.333 69.569,171.333 69.833 C 171.333 70.098,171.398 70.354,171.478 70.403 C 171.558 70.452,171.674 70.876,171.736 71.344 C 171.798 71.813,171.917 72.320,172.001 72.473 C 172.155 72.753,172.455 73.966,172.615 74.958 C 172.664 75.256,172.761 75.500,172.832 75.500 C 172.903 75.500,173.015 75.925,173.079 76.443 C 173.144 76.962,173.260 77.506,173.337 77.652 C 173.524 78.006,173.849 79.268,173.952 80.042 C 173.998 80.385,174.092 80.667,174.163 80.667 C 174.233 80.667,174.342 81.059,174.406 81.538 C 174.469 82.016,174.601 82.504,174.698 82.621 C 174.840 82.792,173.920 82.833,169.941 82.833 L 165.008 82.833 165.111 82.292 C 165.167 81.994,165.274 81.632,165.347 81.487 C 165.421 81.343,165.532 80.836,165.595 80.362 C 165.658 79.888,165.767 79.500,165.837 79.500 C 165.906 79.500,166.003 79.256,166.051 78.958 C 166.212 77.966,166.512 76.753,166.666 76.473 C 166.749 76.320,166.869 75.814,166.930 75.348 C 166.992 74.882,167.100 74.500,167.170 74.500 C 167.240 74.500,167.336 74.256,167.385 73.958 C 167.543 72.981,167.844 71.755,167.993 71.483 C 168.073 71.336,168.192 70.848,168.257 70.399 C 168.322 69.951,168.431 69.508,168.500 69.417 C 168.569 69.325,168.666 69.025,168.717 68.750 C 168.768 68.475,168.936 67.800,169.089 67.250 C 169.243 66.700,169.450 65.819,169.549 65.292 C 169.742 64.269,170.000 64.007,170.000 64.833 M197.097 67.978 C 197.048 68.057,196.738 68.166,196.408 68.219 C 195.702 68.334,194.833 68.695,194.833 68.874 C 194.833 68.943,194.735 69.000,194.615 69.000 C 194.128 69.000,191.667 71.398,191.667 71.872 C 191.667 71.950,191.514 72.178,191.327 72.379 C 191.140 72.579,190.944 72.914,190.892 73.122 C 190.840 73.330,190.736 73.500,190.662 73.500 C 190.587 73.500,190.478 73.722,190.418 73.993 C 190.359 74.264,190.159 74.798,189.975 75.180 C 189.790 75.562,189.597 76.146,189.546 76.479 C 189.495 76.811,189.389 77.166,189.310 77.267 C 189.231 77.368,189.118 78.027,189.058 78.731 C 188.999 79.435,188.886 80.051,188.808 80.099 C 188.623 80.214,188.623 88.333,188.809 88.333 C 188.888 88.333,188.997 88.870,189.052 89.526 C 189.107 90.182,189.230 90.797,189.326 90.892 C 189.422 90.988,189.500 91.193,189.500 91.348 C 189.500 91.794,190.036 93.333,190.192 93.333 C 190.270 93.333,190.333 93.412,190.333 93.509 C 190.333 93.697,190.870 94.863,191.211 95.417 C 191.595 96.040,193.807 98.167,194.071 98.167 C 194.215 98.167,194.333 98.242,194.333 98.333 C 194.333 98.425,194.446 98.500,194.583 98.500 C 194.721 98.500,194.833 98.574,194.833 98.665 C 194.833 98.755,195.135 98.878,195.504 98.937 C 195.872 98.996,196.214 99.109,196.264 99.189 C 196.390 99.393,200.789 99.373,200.917 99.167 C 200.973 99.075,201.200 99.000,201.421 99.000 C 201.788 99.000,202.969 98.543,203.167 98.325 C 203.213 98.274,203.526 98.065,203.862 97.860 C 204.588 97.419,206.277 95.636,206.554 95.018 C 206.726 94.635,206.755 94.740,206.799 95.913 C 206.826 96.645,206.776 97.395,206.686 97.580 C 206.597 97.765,206.488 98.554,206.443 99.333 C 206.334 101.227,204.957 103.969,204.313 103.571 C 204.233 103.521,204.167 103.541,204.167 103.616 C 204.167 104.367,201.186 104.457,197.250 103.825 C 195.001 103.464,193.000 103.559,193.000 104.027 C 193.000 104.104,192.901 104.167,192.781 104.167 C 192.280 104.167,191.833 105.469,191.833 106.932 C 191.833 107.755,191.902 108.333,192.000 108.333 C 192.092 108.333,192.167 108.423,192.167 108.532 C 192.167 108.828,193.468 109.986,193.931 110.102 C 194.152 110.157,194.333 110.270,194.333 110.351 C 194.333 110.433,194.506 110.500,194.717 110.500 C 194.927 110.500,195.175 110.575,195.266 110.666 C 195.357 110.757,195.897 110.880,196.466 110.939 C 197.035 110.999,197.500 111.112,197.500 111.190 C 197.500 111.269,199.150 111.333,201.167 111.333 C 203.183 111.333,204.833 111.268,204.833 111.188 C 204.833 111.109,205.152 111.006,205.542 110.960 C 206.177 110.885,208.123 110.113,208.333 109.853 C 208.379 109.796,208.679 109.607,209.000 109.431 C 209.888 108.946,211.399 107.354,211.781 106.500 C 211.842 106.362,211.943 106.212,212.005 106.167 C 212.179 106.038,213.167 103.949,213.167 103.709 C 213.167 103.591,213.238 103.365,213.326 103.206 C 213.479 102.926,213.629 102.215,214.050 99.750 C 214.492 97.168,214.275 70.833,213.812 70.833 C 213.732 70.833,213.667 70.678,213.667 70.489 C 213.667 70.064,212.878 69.000,212.564 69.000 C 212.437 69.000,212.333 68.940,212.333 68.867 C 212.333 68.619,211.232 68.333,210.280 68.333 C 209.759 68.333,209.333 68.408,209.333 68.500 C 209.333 68.592,209.183 68.667,209.000 68.667 C 208.817 68.667,208.667 68.724,208.667 68.794 C 208.667 68.864,208.500 68.995,208.296 69.085 C 207.701 69.350,207.012 70.641,206.872 71.755 L 206.747 72.750 206.344 72.083 C 205.800 71.182,203.840 69.205,203.375 69.088 C 203.169 69.036,203.000 68.920,203.000 68.830 C 203.000 68.740,202.896 68.667,202.769 68.667 C 202.642 68.667,202.323 68.555,202.061 68.418 C 201.798 68.281,201.302 68.168,200.958 68.168 C 200.615 68.167,200.333 68.092,200.333 68.000 C 200.333 67.794,197.224 67.772,197.097 67.978 M229.000 67.977 C 229.000 68.056,228.597 68.162,228.104 68.213 C 227.611 68.263,227.067 68.380,226.895 68.472 C 226.724 68.564,226.283 68.769,225.917 68.929 C 224.060 69.738,221.000 72.447,221.000 73.282 C 221.000 73.402,220.937 73.500,220.860 73.500 C 220.782 73.500,220.576 73.781,220.401 74.125 C 220.226 74.469,220.037 74.787,219.981 74.833 C 219.924 74.879,219.825 75.104,219.759 75.333 C 219.694 75.563,219.536 75.982,219.408 76.265 C 218.807 77.599,218.357 79.791,218.343 81.448 C 218.338 82.108,218.258 82.693,218.167 82.750 C 217.965 82.875,217.942 85.111,218.141 85.234 C 218.219 85.282,218.326 86.141,218.379 87.143 C 218.432 88.145,218.547 89.104,218.634 89.274 C 218.722 89.444,218.880 89.948,218.985 90.394 C 219.271 91.609,220.597 94.500,220.869 94.500 C 220.941 94.500,221.000 94.606,221.000 94.736 C 221.000 95.073,223.483 97.564,224.171 97.916 C 224.490 98.080,224.787 98.261,224.833 98.319 C 225.057 98.603,226.809 99.359,227.446 99.447 C 227.842 99.501,228.167 99.603,228.167 99.675 C 228.167 99.746,228.598 99.844,229.125 99.894 C 232.279 100.191,232.534 100.200,232.714 100.020 C 232.816 99.917,233.293 99.833,233.773 99.833 C 234.254 99.833,234.693 99.758,234.750 99.667 C 234.807 99.575,235.043 99.500,235.276 99.500 C 235.509 99.500,235.973 99.382,236.308 99.238 C 237.233 98.839,238.074 98.430,238.167 98.333 C 238.213 98.286,238.576 98.036,238.974 97.777 C 240.199 96.983,242.145 94.839,242.441 93.958 C 242.495 93.798,242.599 93.667,242.673 93.667 C 242.747 93.667,242.856 93.442,242.917 93.167 C 242.977 92.892,243.083 92.667,243.153 92.667 C 243.222 92.667,243.420 92.235,243.591 91.708 C 243.763 91.181,243.958 90.673,244.024 90.579 C 244.091 90.485,244.198 89.998,244.261 89.496 C 244.325 88.994,244.432 88.508,244.499 88.417 C 245.016 87.709,245.011 79.333,244.495 79.333 C 244.427 79.333,244.318 78.902,244.253 78.375 C 244.188 77.848,244.082 77.342,244.019 77.250 C 243.955 77.158,243.763 76.652,243.591 76.125 C 243.420 75.598,243.225 75.167,243.158 75.167 C 243.091 75.167,242.987 74.969,242.926 74.728 C 242.493 73.002,238.422 69.000,237.099 69.000 C 236.953 69.000,236.833 68.936,236.833 68.859 C 236.833 68.670,235.251 68.167,234.657 68.167 C 234.398 68.167,234.140 68.092,234.083 68.000 C 233.956 67.795,229.000 67.772,229.000 67.977 M261.083 68.000 C 261.027 68.092,260.815 68.167,260.613 68.167 C 260.102 68.167,258.642 69.184,258.059 69.948 C 257.567 70.591,257.336 71.011,256.974 71.917 C 256.788 72.382,256.769 72.391,256.709 72.042 C 256.673 71.835,256.574 71.667,256.488 71.667 C 256.403 71.667,256.333 71.460,256.333 71.208 C 256.331 70.309,255.184 68.909,254.147 68.542 C 253.110 68.174,251.173 68.390,251.168 68.875 C 251.167 68.944,251.047 69.000,250.902 69.000 C 250.144 69.000,249.000 70.794,249.000 71.981 C 249.000 72.347,248.925 72.693,248.833 72.750 C 248.625 72.879,248.602 93.774,248.810 93.902 C 248.889 93.951,248.993 94.687,249.040 95.537 C 249.221 98.785,250.848 100.035,254.102 99.424 C 254.932 99.268,256.109 98.069,256.261 97.223 C 256.325 96.871,256.461 96.478,256.563 96.349 C 256.691 96.189,256.784 93.676,256.859 88.349 C 256.969 80.544,257.001 80.022,257.432 79.058 C 257.561 78.769,257.667 78.487,257.667 78.431 C 257.667 78.374,257.985 78.003,258.375 77.605 C 259.397 76.562,259.849 76.386,262.792 75.888 C 263.090 75.838,263.333 75.738,263.333 75.667 C 263.333 75.595,263.530 75.487,263.771 75.426 C 265.795 74.918,266.343 70.726,264.635 68.821 C 263.880 67.980,261.444 67.417,261.083 68.000 M276.500 67.975 C 276.500 68.053,275.886 68.165,275.136 68.222 C 274.386 68.280,273.696 68.404,273.603 68.497 C 273.510 68.590,273.261 68.667,273.050 68.667 C 272.839 68.667,272.667 68.742,272.667 68.833 C 272.667 68.925,272.558 69.000,272.425 69.000 C 271.541 69.000,269.261 70.908,269.073 71.806 C 269.022 72.050,268.909 72.380,268.823 72.539 C 268.615 72.925,268.622 74.620,268.833 74.750 C 268.925 74.807,269.000 74.981,269.000 75.137 C 269.000 76.013,269.790 76.381,271.478 76.293 C 272.442 76.242,273.094 76.135,273.132 76.021 C 273.166 75.918,273.376 75.833,273.597 75.833 C 273.819 75.833,274.000 75.765,274.000 75.682 C 274.000 75.599,274.394 75.478,274.875 75.412 C 275.356 75.347,275.798 75.217,275.857 75.124 C 276.022 74.864,280.037 74.865,280.125 75.125 C 280.163 75.240,280.290 75.333,280.406 75.333 C 281.276 75.333,282.094 77.094,282.283 79.375 L 282.363 80.333 279.608 80.333 C 277.951 80.333,276.812 80.400,276.750 80.500 C 276.693 80.592,276.289 80.667,275.851 80.667 C 275.414 80.667,275.002 80.720,274.936 80.786 C 274.871 80.851,274.652 80.925,274.450 80.950 C 273.571 81.057,273.000 81.215,273.000 81.352 C 273.000 81.434,272.880 81.500,272.734 81.500 C 272.403 81.500,271.326 81.996,271.030 82.285 C 270.909 82.403,270.735 82.500,270.643 82.500 C 270.551 82.500,270.382 82.594,270.267 82.708 C 270.153 82.823,269.821 83.104,269.531 83.333 C 269.241 83.563,269.002 83.802,269.002 83.866 C 269.001 83.930,268.814 84.183,268.588 84.428 C 267.623 85.468,266.836 87.653,266.834 89.292 C 266.834 89.940,266.764 90.333,266.649 90.333 C 266.531 90.333,266.499 90.556,266.560 90.958 C 266.612 91.302,266.730 92.194,266.821 92.940 C 266.977 94.213,267.676 96.174,268.021 96.306 C 268.101 96.336,268.167 96.475,268.167 96.615 C 268.167 97.242,271.027 99.500,271.821 99.500 C 272.011 99.500,272.167 99.567,272.167 99.650 C 272.167 99.795,272.776 99.907,274.625 100.104 C 275.204 100.166,275.500 100.136,275.500 100.015 C 275.500 99.911,275.816 99.833,276.240 99.833 C 276.647 99.833,277.023 99.765,277.074 99.681 C 277.126 99.597,277.468 99.478,277.834 99.417 C 278.200 99.355,278.500 99.244,278.500 99.170 C 278.500 99.096,278.688 98.989,278.917 98.932 C 279.146 98.874,279.333 98.753,279.333 98.663 C 279.333 98.574,279.415 98.500,279.515 98.500 C 279.798 98.500,281.371 96.840,281.962 95.917 L 282.496 95.083 282.498 95.792 C 282.499 96.181,282.575 96.500,282.667 96.500 C 282.758 96.500,282.833 96.652,282.833 96.839 C 282.833 98.400,284.004 99.402,285.910 99.473 L 287.430 99.530 288.029 98.973 C 288.694 98.357,289.020 97.789,289.358 96.667 C 289.675 95.610,289.691 77.147,289.375 77.042 C 289.260 77.003,289.167 76.740,289.167 76.455 C 289.167 75.881,288.673 73.964,288.491 73.833 C 288.427 73.787,288.322 73.506,288.258 73.208 C 288.193 72.910,288.089 72.667,288.027 72.667 C 287.965 72.667,287.808 72.423,287.677 72.125 C 286.947 70.461,283.999 68.412,282.044 68.211 C 281.561 68.161,281.167 68.056,281.167 67.977 C 281.167 67.898,280.117 67.833,278.833 67.833 C 277.550 67.833,276.500 67.897,276.500 67.975 M327.265 67.975 C 327.217 68.053,326.597 68.166,325.888 68.226 C 325.179 68.286,324.524 68.410,324.433 68.501 C 324.341 68.592,324.099 68.667,323.893 68.667 C 323.688 68.667,323.477 68.736,323.425 68.821 C 323.372 68.905,323.105 69.024,322.831 69.084 C 322.557 69.144,322.333 69.254,322.333 69.329 C 322.333 69.403,322.165 69.508,321.958 69.561 C 321.046 69.797,319.669 71.539,319.667 72.458 C 319.667 72.756,319.592 73.000,319.500 73.000 C 319.408 73.000,319.333 73.296,319.333 73.657 C 319.333 74.018,319.408 74.360,319.500 74.417 C 319.592 74.473,319.667 74.694,319.667 74.907 C 319.667 76.071,322.793 76.940,323.704 76.030 C 323.812 75.922,324.072 75.833,324.283 75.833 C 324.494 75.833,324.667 75.768,324.667 75.688 C 324.667 75.608,325.059 75.491,325.539 75.427 C 326.018 75.364,326.460 75.232,326.520 75.134 C 326.788 74.701,330.528 74.880,331.267 75.362 C 332.021 75.852,332.667 76.800,332.667 77.416 C 332.667 77.635,332.742 77.860,332.833 77.917 C 332.925 77.973,333.000 78.540,333.000 79.177 L 333.000 80.333 330.260 80.333 C 328.613 80.333,327.479 80.400,327.417 80.500 C 327.360 80.592,326.985 80.667,326.583 80.667 C 326.182 80.667,325.813 80.731,325.765 80.810 C 325.716 80.888,325.318 80.995,324.880 81.047 C 324.442 81.099,323.858 81.260,323.583 81.403 C 323.308 81.547,322.991 81.665,322.878 81.666 C 322.060 81.670,318.500 84.860,318.500 85.589 C 318.500 85.650,318.396 85.936,318.270 86.225 C 317.613 87.722,317.583 87.918,317.583 90.833 C 317.583 93.802,317.604 93.934,318.340 95.595 C 318.635 96.261,319.767 97.868,320.011 97.967 C 320.079 97.995,320.367 98.238,320.650 98.509 C 320.932 98.779,321.277 99.000,321.415 99.000 C 321.553 99.000,321.667 99.072,321.667 99.159 C 321.667 99.247,321.929 99.367,322.250 99.428 C 322.571 99.488,322.833 99.597,322.833 99.669 C 322.833 99.822,324.238 100.018,325.333 100.018 C 326.420 100.018,327.833 99.822,327.833 99.672 C 327.833 99.601,328.133 99.495,328.500 99.436 C 328.867 99.377,329.167 99.274,329.167 99.205 C 329.167 99.137,329.377 98.988,329.634 98.875 C 330.140 98.650,331.071 97.933,331.489 97.445 C 331.633 97.277,331.919 96.954,332.125 96.728 C 332.332 96.501,332.624 96.078,332.774 95.788 L 333.046 95.260 333.289 96.088 C 334.153 99.038,334.493 99.396,336.506 99.475 C 338.442 99.550,338.924 99.283,339.703 97.701 L 340.250 96.590 340.250 86.737 C 340.250 79.759,340.196 76.816,340.065 76.651 C 339.963 76.522,339.833 76.064,339.777 75.632 C 339.683 74.909,339.424 74.196,338.700 72.667 C 338.252 71.720,337.257 70.441,336.563 69.920 C 336.208 69.653,335.878 69.380,335.832 69.314 C 335.785 69.247,335.541 69.142,335.290 69.078 C 335.039 69.015,334.833 68.897,334.833 68.815 C 334.833 68.734,334.698 68.667,334.533 68.667 C 334.368 68.667,334.159 68.592,334.068 68.501 C 333.977 68.410,333.437 68.287,332.868 68.227 C 332.299 68.168,331.833 68.055,331.833 67.976 C 331.833 67.790,327.380 67.789,327.265 67.975 M202.417 74.333 C 202.473 74.425,202.657 74.500,202.824 74.500 C 203.971 74.500,206.000 76.836,206.000 78.157 C 206.000 78.331,206.077 78.498,206.172 78.530 C 206.273 78.563,206.388 79.544,206.448 80.883 C 206.505 82.146,206.615 83.218,206.693 83.266 C 206.877 83.380,206.875 84.455,206.690 84.569 C 206.611 84.618,206.508 85.538,206.461 86.614 C 206.406 87.841,206.305 88.593,206.187 88.632 C 206.084 88.666,206.000 88.817,206.000 88.967 C 206.000 89.266,205.491 90.700,205.338 90.833 C 205.285 90.879,205.008 91.217,204.722 91.584 C 203.313 93.397,200.694 93.499,199.121 91.802 C 198.601 91.241,198.000 90.145,198.000 89.757 C 198.000 89.615,197.930 89.500,197.843 89.500 C 197.757 89.500,197.635 88.973,197.572 88.330 C 197.508 87.686,197.391 87.119,197.311 87.070 C 197.124 86.954,197.121 80.548,197.309 80.432 C 197.387 80.384,197.496 79.858,197.552 79.265 C 197.607 78.671,197.720 78.050,197.802 77.884 C 197.884 77.719,198.093 77.283,198.267 76.917 C 198.612 76.189,198.662 76.114,199.211 75.500 C 199.718 74.933,200.418 74.500,200.827 74.500 C 201.014 74.500,201.167 74.425,201.167 74.333 C 201.167 74.242,201.425 74.167,201.740 74.167 C 202.056 74.167,202.360 74.242,202.417 74.333 M233.119 74.608 C 234.313 75.270,235.480 76.860,235.741 78.182 C 235.802 78.495,235.922 78.900,236.006 79.083 C 236.600 80.376,236.602 87.647,236.008 88.917 C 235.923 89.100,235.804 89.498,235.744 89.802 C 235.644 90.310,235.492 90.612,234.581 92.111 C 234.405 92.401,234.033 92.770,233.755 92.931 C 233.477 93.093,233.196 93.306,233.131 93.404 C 233.061 93.510,232.400 93.583,231.523 93.583 L 230.034 93.583 229.225 92.898 C 228.501 92.284,228.038 91.559,227.142 89.637 C 227.070 89.483,226.961 88.862,226.899 88.257 C 226.837 87.652,226.722 87.117,226.643 87.069 C 226.457 86.954,226.456 81.047,226.642 80.932 C 226.720 80.884,226.829 80.369,226.883 79.788 C 227.031 78.196,228.033 76.017,228.955 75.279 C 229.164 75.111,229.442 74.868,229.572 74.737 C 229.703 74.607,229.965 74.500,230.155 74.500 C 230.345 74.500,230.500 74.425,230.500 74.333 C 230.500 73.966,232.300 74.155,233.119 74.608 M282.333 86.657 C 282.333 87.293,282.258 87.860,282.167 87.917 C 282.075 87.973,282.000 88.355,282.000 88.765 C 282.000 90.784,280.743 92.972,279.030 93.936 C 278.095 94.462,276.305 94.394,275.833 93.814 C 275.787 93.758,275.591 93.662,275.396 93.601 C 273.346 92.962,273.849 86.500,275.948 86.500 C 276.068 86.500,276.167 86.431,276.167 86.347 C 276.167 86.262,276.410 86.141,276.708 86.077 C 277.006 86.014,277.325 85.902,277.417 85.829 C 277.672 85.626,278.408 85.552,280.458 85.525 L 282.333 85.500 282.333 86.657 M333.000 87.083 C 333.000 88.028,332.933 88.667,332.833 88.667 C 332.742 88.667,332.667 88.932,332.667 89.255 C 332.667 89.579,332.554 90.113,332.417 90.442 C 332.279 90.771,332.167 91.175,332.167 91.340 C 332.167 91.504,332.110 91.664,332.042 91.694 C 331.973 91.725,331.705 92.075,331.446 92.473 C 331.188 92.871,330.757 93.321,330.489 93.473 C 330.221 93.625,330.002 93.806,330.001 93.875 C 330.000 93.944,329.854 94.000,329.677 94.000 C 329.499 94.000,329.304 94.080,329.243 94.178 C 328.791 94.910,326.373 94.045,325.409 92.807 C 324.674 91.864,324.463 89.797,324.974 88.540 C 325.332 87.659,326.717 86.167,327.177 86.167 C 327.281 86.167,327.603 86.058,327.891 85.925 C 328.573 85.612,329.044 85.555,331.208 85.525 L 333.000 85.500 333.000 87.083 " stroke="none" fill="#fbc26a" fill-rule="evenodd"></path><path id="path1" d="M53.223 26.625 C 52.184 27.550,52.185 28.698,53.226 29.538 C 53.916 30.095,56.611 29.954,57.379 29.321 C 58.242 28.610,58.289 27.404,57.482 26.650 C 56.709 25.928,54.023 25.912,53.223 26.625 M45.333 28.497 C 45.196 28.576,44.746 28.807,44.333 29.012 C 41.289 30.522,37.958 33.158,35.917 35.674 C 34.188 37.804,33.060 39.656,31.860 42.333 C 31.385 43.394,30.500 46.156,30.500 46.579 C 30.500 46.774,30.433 47.005,30.351 47.092 C 30.220 47.230,30.096 48.176,29.714 51.955 C 29.521 53.864,30.828 54.993,32.379 54.257 C 33.138 53.897,33.266 53.523,33.469 51.083 C 33.772 47.447,34.158 46.005,35.719 42.667 C 36.200 41.638,37.375 39.640,37.745 39.223 C 37.839 39.116,38.100 38.779,38.325 38.473 C 38.758 37.883,41.067 35.539,41.929 34.814 C 42.750 34.123,44.483 33.006,45.833 32.298 C 47.446 31.451,47.676 31.216,47.709 30.375 C 47.765 28.976,46.391 27.889,45.333 28.497 M44.583 49.231 C 40.386 50.547,40.076 56.370,44.110 58.115 C 45.712 58.808,47.926 58.351,49.215 57.063 C 52.610 53.668,49.141 47.803,44.583 49.231 M62.714 49.352 C 59.153 50.720,58.610 55.658,61.797 57.679 C 64.979 59.697,69.021 57.503,69.021 53.758 C 69.021 50.436,65.780 48.173,62.714 49.352 M81.102 49.411 C 76.272 51.397,77.689 58.358,82.917 58.325 C 88.122 58.292,89.235 51.181,84.327 49.315 C 83.222 48.896,82.289 48.923,81.102 49.411 M105.417 58.503 C 102.900 59.664,102.317 63.523,104.394 65.277 C 108.280 68.557,113.511 63.655,110.432 59.618 C 109.416 58.286,107.033 57.756,105.417 58.503 " stroke="none" fill="#fcf3e6" fill-rule="evenodd"></path><path id="path2" d="M99.500 39.131 C 99.500 39.243,99.607 40.066,99.737 40.959 C 102.026 56.627,93.873 70.041,79.750 73.844 C 75.495 74.989,73.802 75.228,70.000 75.221 C 67.268 75.216,66.651 75.161,64.583 74.736 C 56.618 73.097,50.067 74.980,46.849 79.833 C 46.171 80.856,46.039 81.114,45.407 82.667 C 45.164 83.262,44.819 84.087,44.640 84.500 C 44.064 85.829,43.958 86.077,43.820 86.417 C 43.746 86.600,43.527 87.125,43.333 87.583 C 43.140 88.042,42.919 88.567,42.841 88.750 C 42.764 88.933,42.575 89.383,42.422 89.750 C 42.269 90.117,42.078 90.567,41.996 90.750 C 41.915 90.933,41.650 91.571,41.407 92.167 C 41.164 92.763,40.823 93.565,40.649 93.949 C 40.476 94.334,40.333 94.688,40.333 94.736 C 40.333 94.814,39.967 95.663,39.238 97.275 C 38.936 97.943,38.938 98.167,39.245 98.167 C 39.539 98.167,40.894 97.486,40.972 97.299 C 41.003 97.226,41.134 97.167,41.264 97.167 C 41.394 97.167,41.500 97.098,41.500 97.013 C 41.500 96.929,41.725 96.810,42.000 96.750 C 42.275 96.690,42.500 96.588,42.500 96.525 C 42.500 96.461,42.781 96.261,43.125 96.080 C 43.469 95.899,43.849 95.657,43.970 95.542 C 44.091 95.427,44.298 95.333,44.429 95.333 C 44.560 95.333,44.667 95.266,44.667 95.185 C 44.667 95.103,44.868 94.985,45.115 94.924 C 45.362 94.862,45.685 94.671,45.833 94.500 C 45.982 94.329,46.305 94.138,46.552 94.076 C 46.798 94.015,47.000 93.905,47.000 93.833 C 47.000 93.762,47.187 93.656,47.417 93.598 C 47.646 93.541,47.833 93.420,47.833 93.330 C 47.833 93.240,47.946 93.167,48.083 93.167 C 48.221 93.167,48.333 93.092,48.333 93.000 C 48.333 92.908,48.486 92.833,48.672 92.833 C 48.858 92.833,49.052 92.725,49.102 92.594 C 49.153 92.462,49.413 92.306,49.681 92.247 C 49.948 92.188,50.167 92.071,50.167 91.987 C 50.167 91.902,50.309 91.833,50.482 91.833 C 50.656 91.833,50.841 91.721,50.894 91.583 C 50.946 91.446,51.142 91.333,51.328 91.333 C 51.514 91.333,51.668 91.277,51.669 91.208 C 51.670 91.140,51.970 90.940,52.335 90.765 C 52.701 90.590,53.000 90.389,53.000 90.320 C 53.000 90.250,53.225 90.144,53.500 90.083 C 53.775 90.023,54.000 89.917,54.000 89.847 C 54.000 89.777,54.299 89.577,54.665 89.402 C 55.030 89.227,55.330 89.027,55.331 88.958 C 55.332 88.890,55.933 88.833,56.667 88.833 C 57.444 88.833,58.000 88.903,58.000 89.000 C 58.000 89.099,58.611 89.167,59.500 89.167 C 60.389 89.167,61.000 89.235,61.000 89.333 C 61.000 89.441,62.694 89.500,65.750 89.500 C 68.362 89.500,70.500 89.435,70.500 89.356 C 70.500 89.215,70.888 89.126,73.917 88.571 C 86.627 86.242,98.372 76.044,101.351 64.750 C 101.423 64.475,101.709 63.391,101.987 62.342 C 103.569 56.350,103.427 49.537,101.599 43.808 C 100.911 41.652,99.500 38.508,99.500 39.131 " stroke="none" fill="#bcac83" fill-rule="evenodd"></path><path id="path3" d="M61.500 18.162 C 61.362 18.240,60.462 18.382,59.500 18.478 C 57.858 18.640,56.638 18.837,55.667 19.096 C 55.438 19.157,54.969 19.243,54.625 19.288 C 54.281 19.332,54.000 19.427,54.000 19.499 C 54.000 19.620,52.567 19.925,52.292 19.862 C 52.223 19.846,52.167 19.908,52.167 20.000 C 52.167 20.092,52.019 20.167,51.839 20.167 C 51.543 20.167,50.734 20.463,49.961 20.854 C 49.801 20.934,49.588 21.000,49.486 21.000 C 49.312 21.000,49.059 21.101,47.460 21.808 C 47.118 21.959,46.836 22.140,46.835 22.208 C 46.834 22.277,46.665 22.337,46.458 22.341 C 46.252 22.345,45.783 22.533,45.417 22.760 C 45.050 22.986,44.619 23.217,44.458 23.272 C 44.298 23.327,44.167 23.438,44.167 23.519 C 44.167 23.600,44.079 23.667,43.973 23.667 C 43.783 23.667,42.163 24.636,42.000 24.847 C 41.954 24.906,41.748 25.008,41.542 25.072 C 41.335 25.136,41.167 25.259,41.167 25.345 C 41.167 25.430,41.062 25.500,40.934 25.500 C 40.807 25.500,40.659 25.613,40.606 25.750 C 40.554 25.887,40.402 26.000,40.269 26.000 C 40.136 26.000,40.003 26.057,39.972 26.126 C 39.942 26.196,39.579 26.512,39.167 26.830 C 38.754 27.148,38.379 27.448,38.333 27.497 C 38.287 27.545,37.973 27.792,37.634 28.044 C 36.787 28.675,33.500 32.009,33.500 32.237 C 33.500 32.284,33.294 32.538,33.042 32.802 C 32.238 33.643,31.870 34.121,31.761 34.466 C 31.702 34.651,31.544 34.845,31.410 34.896 C 31.276 34.947,31.167 35.090,31.167 35.213 C 31.167 35.336,31.035 35.587,30.875 35.769 C 30.480 36.219,30.233 36.613,29.791 37.500 C 29.585 37.912,29.366 38.288,29.305 38.335 C 29.243 38.382,29.142 38.626,29.078 38.877 C 29.015 39.128,28.915 39.333,28.856 39.333 C 28.797 39.333,28.645 39.577,28.520 39.875 C 28.394 40.173,28.189 40.634,28.063 40.901 C 27.936 41.167,27.833 41.455,27.833 41.542 C 27.833 41.629,27.715 41.973,27.569 42.308 C 27.424 42.643,27.199 43.163,27.069 43.464 C 26.940 43.765,26.833 44.228,26.833 44.492 C 26.833 44.756,26.759 44.997,26.668 45.028 C 26.578 45.058,26.454 45.552,26.395 46.125 C 26.335 46.698,26.222 47.167,26.143 47.167 C 26.064 47.167,26.000 47.500,26.000 47.907 C 26.000 48.314,25.932 48.689,25.850 48.740 C 25.767 48.791,25.716 49.061,25.735 49.341 C 25.754 49.621,25.718 50.295,25.653 50.840 C 25.538 51.816,25.546 51.840,26.143 52.469 C 26.477 52.820,27.343 53.765,28.069 54.570 C 36.396 63.811,49.976 68.057,62.750 65.413 C 68.333 64.258,74.208 61.438,78.429 57.888 C 79.293 57.161,79.564 57.151,80.167 57.824 C 81.878 59.733,86.837 57.955,87.421 55.222 C 87.477 54.959,87.293 55.207,87.006 55.781 C 84.767 60.263,78.250 58.697,78.250 53.677 C 78.250 48.696,84.767 47.238,87.006 51.719 C 87.293 52.293,87.477 52.541,87.421 52.278 C 87.302 51.722,86.585 50.537,86.121 50.130 C 85.800 49.849,85.811 49.817,86.712 48.297 C 90.072 42.635,91.787 36.720,92.028 29.966 L 92.074 28.682 91.245 27.915 C 90.790 27.493,90.206 26.984,89.949 26.782 C 89.692 26.581,89.324 26.285,89.132 26.125 C 88.940 25.965,88.711 25.833,88.623 25.833 C 88.536 25.833,88.317 25.646,88.137 25.417 C 87.957 25.188,87.736 25.000,87.648 25.000 C 87.559 25.000,87.344 24.869,87.171 24.708 C 86.997 24.548,86.495 24.229,86.056 24.000 C 85.616 23.771,85.163 23.497,85.048 23.391 C 84.934 23.285,84.614 23.098,84.337 22.975 C 84.060 22.852,83.833 22.695,83.833 22.626 C 83.833 22.557,83.726 22.500,83.595 22.500 C 83.464 22.500,83.258 22.401,83.137 22.280 C 83.016 22.158,82.542 21.919,82.083 21.747 C 81.625 21.575,81.212 21.383,81.167 21.321 C 81.121 21.259,80.840 21.156,80.542 21.091 C 80.244 21.026,80.000 20.913,80.000 20.840 C 80.000 20.766,79.831 20.667,79.625 20.620 C 79.194 20.521,78.319 20.212,77.558 19.889 C 77.269 19.767,76.912 19.667,76.764 19.667 C 76.616 19.667,76.365 19.601,76.206 19.520 C 75.740 19.285,74.807 19.022,74.000 18.898 C 73.587 18.835,73.209 18.720,73.159 18.644 C 73.109 18.568,72.300 18.456,71.361 18.394 C 70.423 18.333,69.616 18.219,69.568 18.141 C 69.454 17.957,61.826 17.976,61.500 18.162 M57.482 26.650 C 58.289 27.404,58.242 28.610,57.379 29.321 C 56.077 30.394,53.258 30.023,52.588 28.691 C 51.608 26.742,55.737 25.020,57.482 26.650 M46.814 28.625 C 48.477 29.579,48.064 31.127,45.833 32.298 C 44.483 33.006,42.750 34.123,41.929 34.814 C 41.067 35.539,38.758 37.883,38.325 38.473 C 38.100 38.779,37.839 39.116,37.745 39.223 C 37.375 39.640,36.200 41.638,35.719 42.667 C 34.158 46.005,33.772 47.447,33.469 51.083 C 33.266 53.523,33.138 53.897,32.379 54.257 C 30.828 54.993,29.521 53.864,29.714 51.955 C 30.096 48.176,30.220 47.230,30.351 47.092 C 30.433 47.005,30.500 46.774,30.500 46.579 C 30.500 46.156,31.385 43.394,31.860 42.333 C 33.060 39.656,34.188 37.804,35.917 35.674 C 37.958 33.158,41.289 30.522,44.333 29.012 C 44.746 28.807,45.196 28.576,45.333 28.497 C 45.735 28.266,46.269 28.312,46.814 28.625 M110.460 46.594 C 108.773 47.510,109.084 48.694,111.706 51.333 C 117.266 56.931,119.569 64.515,118.006 72.083 C 117.527 74.400,118.035 75.500,119.583 75.500 C 121.503 75.500,122.225 73.319,122.233 67.500 C 122.243 59.874,119.516 53.331,114.187 48.192 C 112.220 46.296,111.545 46.006,110.460 46.594 M47.234 49.252 C 52.372 50.810,51.274 58.431,45.917 58.399 C 40.526 58.366,39.433 50.846,44.583 49.231 C 45.483 48.949,46.257 48.955,47.234 49.252 M65.759 49.260 C 68.926 50.181,70.119 54.502,67.866 56.894 C 64.814 60.135,59.442 57.902,59.702 53.500 C 59.885 50.398,62.758 48.387,65.759 49.260 M105.522 58.272 C 105.214 58.407,105.000 58.556,105.048 58.604 C 105.096 58.652,105.379 58.566,105.676 58.412 C 106.078 58.204,106.526 58.148,107.430 58.194 C 108.097 58.228,108.555 58.199,108.447 58.130 C 108.112 57.917,106.113 58.014,105.522 58.272 M109.402 58.730 C 109.761 58.947,110.267 59.410,110.527 59.759 C 110.787 60.107,111.000 60.337,111.000 60.269 C 111.000 59.819,109.382 58.331,108.897 58.334 C 108.816 58.335,109.044 58.513,109.402 58.730 M104.116 59.319 C 103.454 60.051,103.094 60.650,103.232 60.787 C 103.283 60.838,103.398 60.686,103.488 60.448 C 103.578 60.211,103.926 59.714,104.262 59.342 C 104.598 58.971,104.835 58.667,104.789 58.667 C 104.743 58.667,104.440 58.960,104.116 59.319 M111.170 61.010 C 111.260 61.324,111.333 61.882,111.333 62.250 C 111.333 62.618,111.260 63.176,111.170 63.490 C 111.040 63.942,111.048 64.018,111.211 63.855 C 111.341 63.725,111.417 63.137,111.417 62.250 C 111.417 61.363,111.341 60.775,111.211 60.645 C 111.048 60.482,111.040 60.558,111.170 61.010 M102.903 61.762 C 102.842 62.089,102.869 62.595,102.962 62.887 C 103.116 63.364,103.134 63.304,103.150 62.292 C 103.168 61.050,103.075 60.849,102.903 61.762 M103.173 63.683 C 103.158 64.285,104.937 66.167,105.522 66.167 C 105.637 66.167,105.398 65.954,104.991 65.695 C 104.133 65.149,103.938 64.935,103.501 64.059 C 103.324 63.706,103.177 63.537,103.173 63.683 M110.352 64.853 C 110.041 65.227,109.553 65.676,109.268 65.849 C 108.983 66.023,108.827 66.166,108.921 66.166 C 109.301 66.167,110.997 64.637,110.999 64.292 C 111.000 64.090,110.946 64.137,110.352 64.853 M106.058 66.372 C 106.163 66.440,106.700 66.495,107.250 66.495 C 107.800 66.495,108.337 66.440,108.442 66.372 C 108.548 66.305,108.012 66.250,107.250 66.250 C 106.488 66.250,105.952 66.305,106.058 66.372 M201.460 92.951 C 201.668 92.991,201.968 92.990,202.127 92.948 C 202.286 92.906,202.117 92.874,201.750 92.875 C 201.383 92.877,201.253 92.911,201.460 92.951 M194.460 103.618 C 194.668 103.658,194.968 103.656,195.127 103.615 C 195.286 103.573,195.117 103.540,194.750 103.542 C 194.383 103.544,194.253 103.578,194.460 103.618 " stroke="none" fill="#fccb8b" fill-rule="evenodd"></path><path id="path4" d="M112.167 37.302 C 112.167 37.390,112.354 37.585,112.583 37.735 C 112.813 37.885,113.000 37.931,113.000 37.837 C 113.000 37.743,112.930 37.667,112.845 37.667 C 112.760 37.667,112.573 37.549,112.429 37.405 C 112.285 37.261,112.167 37.215,112.167 37.302 M114.500 39.195 C 114.917 39.602,115.129 39.677,114.924 39.345 C 114.864 39.248,114.650 39.083,114.449 38.979 C 114.118 38.807,114.123 38.827,114.500 39.195 M115.582 40.165 C 115.844 40.439,116.092 40.631,116.131 40.591 C 116.208 40.514,115.349 39.667,115.194 39.667 C 115.145 39.667,115.319 39.891,115.582 40.165 M117.833 42.398 C 117.833 42.462,117.983 42.675,118.167 42.872 C 118.350 43.069,118.500 43.152,118.500 43.057 C 118.500 42.963,118.350 42.749,118.167 42.583 C 117.983 42.417,117.833 42.334,117.833 42.398 M119.360 44.333 C 119.563 44.608,119.757 44.833,119.791 44.833 C 119.825 44.833,119.719 44.608,119.557 44.333 C 119.394 44.058,119.200 43.833,119.126 43.833 C 119.051 43.833,119.156 44.058,119.360 44.333 M123.460 51.752 C 123.574 52.350,123.787 52.414,123.701 51.825 C 123.661 51.554,123.573 51.333,123.504 51.333 C 123.436 51.333,123.416 51.522,123.460 51.752 M124.787 56.375 C 124.913 57.386,125.094 57.475,125.026 56.492 C 124.994 56.038,124.907 55.667,124.833 55.667 C 124.759 55.667,124.738 55.985,124.787 56.375 M125.372 59.667 C 125.372 59.987,125.406 60.119,125.448 59.958 C 125.490 59.798,125.490 59.535,125.448 59.375 C 125.406 59.215,125.372 59.346,125.372 59.667 M125.313 64.417 C 125.214 65.083,125.250 65.306,125.428 65.128 C 125.480 65.076,125.498 64.745,125.467 64.392 L 125.413 63.750 125.313 64.417 M124.858 68.278 C 124.845 68.477,124.785 68.777,124.725 68.945 C 124.643 69.180,124.665 69.207,124.822 69.062 C 124.934 68.959,124.994 68.659,124.955 68.395 C 124.904 68.058,124.876 68.023,124.858 68.278 M204.917 70.333 C 205.536 70.968,205.667 71.074,205.667 70.942 C 205.667 70.834,204.484 69.667,204.375 69.667 C 204.315 69.667,204.559 69.967,204.917 70.333 M286.321 70.388 C 286.745 70.856,286.837 70.914,286.828 70.708 C 286.825 70.640,286.619 70.439,286.370 70.263 L 285.917 69.943 286.321 70.388 M123.667 72.876 C 123.667 72.900,123.593 73.176,123.503 73.490 C 123.413 73.804,123.403 73.991,123.481 73.905 C 123.652 73.719,123.876 72.833,123.753 72.833 C 123.706 72.833,123.667 72.853,123.667 72.876 M95.154 76.120 C 89.968 82.744,81.540 87.417,72.083 88.912 C 70.756 89.122,70.429 89.392,71.250 89.598 C 71.479 89.656,71.667 89.764,71.667 89.838 C 71.667 89.913,71.892 90.023,72.167 90.083 C 72.442 90.144,72.667 90.262,72.667 90.347 C 72.667 90.431,72.779 90.500,72.917 90.500 C 73.054 90.500,73.167 90.572,73.167 90.659 C 73.167 90.747,73.429 90.867,73.750 90.928 C 74.071 90.988,74.333 91.103,74.333 91.183 C 74.333 91.264,74.633 91.377,75.000 91.436 C 75.367 91.495,75.667 91.608,75.667 91.688 C 75.667 91.768,75.779 91.833,75.917 91.833 C 76.054 91.833,76.167 91.900,76.167 91.981 C 76.167 92.062,76.504 92.179,76.917 92.241 C 77.329 92.303,77.667 92.417,77.667 92.495 C 77.667 92.572,78.042 92.687,78.500 92.750 C 78.958 92.813,79.333 92.933,79.333 93.016 C 79.333 93.099,79.554 93.167,79.823 93.167 C 80.093 93.167,80.355 93.234,80.406 93.316 C 80.457 93.398,81.117 93.519,81.874 93.586 C 82.631 93.652,83.304 93.791,83.369 93.895 C 83.547 94.177,96.199 94.154,96.293 93.872 C 96.373 93.631,98.833 93.577,98.833 93.815 C 98.833 93.897,99.021 94.011,99.250 94.068 C 99.479 94.126,99.667 94.247,99.667 94.337 C 99.667 94.426,99.779 94.500,99.917 94.500 C 100.054 94.500,100.167 94.569,100.167 94.653 C 100.167 94.738,100.392 94.856,100.667 94.917 C 100.942 94.977,101.167 95.094,101.167 95.177 C 101.167 95.259,101.354 95.374,101.583 95.432 C 101.813 95.489,102.000 95.603,102.000 95.685 C 102.000 95.766,102.112 95.833,102.250 95.833 C 102.388 95.833,102.500 95.900,102.500 95.982 C 102.500 96.064,102.688 96.178,102.917 96.235 C 103.146 96.293,103.333 96.407,103.333 96.490 C 103.333 96.573,103.558 96.690,103.833 96.750 C 104.108 96.810,104.333 96.923,104.333 96.999 C 104.333 97.076,104.821 97.376,105.417 97.667 C 106.013 97.957,106.500 98.245,106.500 98.308 C 106.500 98.427,107.728 99.000,107.983 99.000 C 108.065 99.000,108.174 99.112,108.227 99.250 C 108.280 99.388,108.475 99.500,108.661 99.500 C 108.848 99.500,109.000 99.575,109.000 99.667 C 109.000 99.758,109.112 99.833,109.250 99.833 C 109.388 99.833,109.500 99.907,109.500 99.997 C 109.500 100.087,109.688 100.207,109.917 100.265 C 110.146 100.322,110.333 100.428,110.333 100.500 C 110.333 100.572,110.535 100.681,110.782 100.743 C 111.028 100.805,111.352 100.996,111.500 101.167 C 111.648 101.338,111.972 101.528,112.218 101.590 C 112.465 101.652,112.667 101.762,112.667 101.833 C 112.667 101.905,112.854 102.011,113.083 102.068 C 113.313 102.126,113.500 102.247,113.500 102.337 C 113.500 102.426,113.688 102.500,113.917 102.500 L 114.333 102.500 114.333 94.747 L 114.333 86.995 114.844 86.539 C 115.124 86.288,115.565 85.868,115.824 85.605 C 116.353 85.067,116.436 84.984,117.105 84.319 C 117.697 83.732,118.000 83.373,118.000 83.263 C 118.000 83.216,118.225 82.948,118.500 82.667 C 118.775 82.385,119.000 82.075,119.000 81.977 C 119.000 81.878,119.188 81.650,119.417 81.470 C 119.646 81.290,119.833 81.035,119.833 80.905 C 119.833 80.774,119.907 80.667,119.997 80.667 C 120.087 80.667,120.207 80.479,120.265 80.250 C 120.322 80.021,120.436 79.833,120.518 79.833 C 120.600 79.833,120.667 79.721,120.667 79.583 C 120.667 79.446,120.740 79.333,120.830 79.333 C 120.920 79.333,121.041 79.146,121.098 78.917 C 121.156 78.688,121.264 78.500,121.338 78.500 C 121.413 78.500,121.523 78.275,121.583 78.000 C 121.644 77.725,121.762 77.500,121.847 77.500 C 121.931 77.500,122.000 77.350,122.000 77.167 C 122.000 76.983,122.067 76.833,122.149 76.833 C 122.230 76.833,122.349 76.628,122.412 76.377 C 122.475 76.126,122.585 75.882,122.657 75.835 C 122.729 75.788,122.839 75.589,122.900 75.391 C 123.014 75.026,121.938 75.092,121.423 75.482 C 121.278 75.592,119.268 76.241,117.250 76.829 C 116.727 76.982,114.358 77.363,112.083 77.661 C 109.666 77.978,108.088 77.896,103.750 77.231 C 102.833 77.090,101.858 76.909,101.583 76.829 C 99.892 76.336,97.522 75.569,97.167 75.400 C 96.134 74.907,96.092 74.922,95.154 76.120 M244.872 81.667 C 244.872 81.987,244.906 82.119,244.948 81.958 C 244.990 81.798,244.990 81.535,244.948 81.375 C 244.906 81.215,244.872 81.346,244.872 81.667 M256.909 88.167 C 256.909 91.787,256.931 93.269,256.958 91.458 C 256.985 89.648,256.985 86.685,256.958 84.875 C 256.931 83.065,256.909 84.546,256.909 88.167 M236.353 82.865 C 236.342 83.295,236.393 83.684,236.465 83.728 C 236.538 83.773,236.571 83.534,236.539 83.197 C 236.441 82.166,236.373 82.044,236.353 82.865 M236.383 85.000 C 236.383 85.504,236.415 85.710,236.453 85.458 C 236.491 85.206,236.491 84.794,236.453 84.542 C 236.415 84.290,236.383 84.496,236.383 85.000 M330.851 93.010 C 330.632 93.192,330.488 93.377,330.531 93.420 C 330.574 93.463,330.786 93.311,331.001 93.083 C 331.468 92.585,331.401 92.552,330.851 93.010 " stroke="none" fill="#fba434" fill-rule="evenodd"></path></g></svg>