<svg id="svg" version="1.1" xmlns="http://www.w3.org/2000/svg" xmlns:xlink="http://www.w3.org/1999/xlink" width="400" height="307.73333333333335" viewBox="0, 0, 400,307.73333333333335"><g id="svgg"><path id="path0" d="M184.490 46.257 C 184.393 46.359,183.373 46.485,182.223 46.538 C 181.074 46.591,179.653 46.688,179.067 46.755 C 178.480 46.821,177.294 46.951,176.430 47.044 C 175.567 47.138,174.739 47.289,174.590 47.381 C 174.442 47.472,173.906 47.585,173.400 47.630 C 172.894 47.676,172.331 47.836,172.149 47.987 C 171.967 48.138,171.747 48.191,171.660 48.104 C 171.573 48.018,171.346 48.043,171.156 48.161 C 170.965 48.278,170.627 48.393,170.405 48.415 C 168.992 48.555,162.649 50.823,162.337 51.300 C 162.230 51.465,162.140 51.516,162.137 51.414 C 162.128 50.964,155.229 54.503,154.144 55.514 C 153.845 55.793,153.596 55.926,153.592 55.810 C 153.587 55.695,153.402 55.840,153.180 56.133 C 152.958 56.427,152.692 56.652,152.589 56.633 C 152.282 56.578,150.133 58.136,150.133 58.413 C 150.133 58.552,149.982 58.667,149.798 58.667 C 148.685 58.667,139.467 68.359,139.467 69.529 C 139.467 69.683,139.279 69.882,139.050 69.970 C 138.820 70.058,138.708 70.250,138.799 70.398 C 138.890 70.546,138.864 70.667,138.740 70.667 C 138.473 70.667,137.451 72.312,137.539 72.600 C 137.572 72.710,137.490 72.800,137.355 72.800 C 136.863 72.800,132.955 81.591,133.112 82.342 C 133.135 82.447,133.005 82.893,132.824 83.333 C 132.644 83.773,132.458 84.493,132.412 84.933 C 132.366 85.373,132.244 85.938,132.141 86.187 C 132.037 86.437,132.025 86.759,132.114 86.902 C 132.203 87.046,132.152 87.239,132.001 87.332 C 131.851 87.426,131.724 87.824,131.720 88.218 C 131.715 88.611,131.631 89.713,131.531 90.667 C 130.014 105.239,135.269 120.049,145.579 130.262 L 148.267 132.923 148.267 144.862 C 148.267 160.482,147.670 160.525,154.417 144.411 C 159.745 131.687,160.345 130.550,163.027 128.094 C 168.288 123.276,174.354 122.320,186.400 124.408 C 203.006 127.286,222.374 117.938,229.550 103.582 C 232.998 96.684,234.483 85.357,233.017 77.133 C 232.538 74.444,232.598 74.421,233.708 76.867 C 247.664 107.620,223.189 144.000,188.544 144.000 C 186.212 144.000,186.210 144.157,188.506 146.034 C 198.736 154.391,210.668 157.451,226.972 155.898 L 231.410 155.475 241.978 161.604 C 247.791 164.975,252.603 167.733,252.673 167.733 C 252.743 167.733,252.800 162.948,252.800 157.098 L 252.800 146.464 255.095 144.232 C 259.031 140.405,265.326 130.934,264.656 129.849 C 264.571 129.712,264.610 129.600,264.742 129.600 C 264.950 129.600,265.648 127.843,265.749 127.067 C 265.768 126.920,265.932 126.440,266.114 126.000 C 266.418 125.267,267.360 121.209,267.446 120.267 C 267.466 120.047,267.552 119.267,267.639 118.533 C 267.781 117.321,267.857 108.340,267.735 107.067 C 267.579 105.429,267.112 103.177,266.901 103.047 C 266.768 102.964,266.720 102.797,266.795 102.675 C 266.943 102.435,265.918 98.887,265.637 98.667 C 265.543 98.593,265.425 98.293,265.373 98.000 C 265.322 97.707,265.202 97.407,265.107 97.333 C 265.011 97.260,264.900 97.020,264.860 96.800 C 264.732 96.097,262.869 92.533,262.630 92.533 C 262.504 92.533,262.425 92.443,262.455 92.333 C 262.547 91.995,261.603 90.400,261.311 90.400 C 261.159 90.400,261.097 90.301,261.172 90.179 C 261.247 90.058,260.954 89.570,260.521 89.096 C 260.088 88.622,259.733 88.141,259.733 88.028 C 259.733 87.438,252.942 80.534,252.362 80.533 C 252.194 80.533,251.996 80.375,251.922 80.181 C 251.783 79.820,246.933 76.386,246.933 76.649 C 246.933 76.729,246.689 76.586,246.391 76.331 C 246.093 76.075,245.777 75.907,245.688 75.956 C 245.599 76.005,245.453 75.930,245.363 75.790 C 245.132 75.427,240.801 73.285,240.796 73.530 C 240.794 73.642,240.704 73.601,240.596 73.440 C 240.176 72.812,231.469 69.936,230.953 70.254 C 230.649 70.442,229.736 69.498,228.130 67.333 C 226.349 64.932,220.169 58.667,219.582 58.667 C 219.372 58.667,219.200 58.558,219.200 58.425 C 219.200 57.867,211.430 52.659,211.096 52.993 C 211.006 53.082,210.933 53.008,210.933 52.829 C 210.933 52.649,210.813 52.576,210.667 52.667 C 210.520 52.757,210.400 52.725,210.400 52.595 C 210.400 52.341,207.727 51.007,207.518 51.156 C 207.449 51.205,207.319 51.126,207.228 50.979 C 206.894 50.439,198.765 47.546,198.454 47.857 C 198.378 47.933,198.167 47.872,197.985 47.721 C 197.803 47.570,197.252 47.405,196.760 47.354 C 196.269 47.303,195.687 47.198,195.467 47.120 C 195.247 47.042,194.887 46.965,194.667 46.949 C 194.447 46.932,193.787 46.849,193.200 46.764 C 192.613 46.678,191.593 46.568,190.933 46.518 C 186.107 46.154,184.644 46.095,184.490 46.257 M175.221 57.846 C 177.904 60.529,173.339 64.059,169.333 62.400 C 167.358 61.582,167.211 58.484,169.096 57.439 C 170.437 56.695,174.329 56.954,175.221 57.846 M160.389 60.413 C 162.975 61.640,162.346 64.416,159.114 66.043 C 149.363 70.949,142.981 80.740,142.164 92.046 C 141.878 96.007,140.643 97.272,138.030 96.278 C 134.514 94.941,137.336 81.495,142.902 73.067 C 147.443 66.191,157.393 58.991,160.389 60.413 M251.093 85.822 C 258.708 91.354,264.038 103.069,264.022 114.240 C 264.011 122.228,262.683 125.746,259.877 125.220 C 257.768 124.824,257.409 123.493,258.226 119.098 C 260.067 109.199,256.564 98.945,248.698 91.206 C 246.536 89.079,246.400 88.879,246.400 87.826 C 246.400 85.250,248.860 84.200,251.093 85.822 M162.086 89.493 C 164.637 90.764,166.010 93.747,165.367 96.621 C 164.034 102.577,155.731 103.522,153.164 98.011 C 150.518 92.327,156.436 86.678,162.086 89.493 M187.503 89.543 C 191.984 91.871,192.040 98.437,187.600 100.860 C 183.272 103.222,177.930 100.167,177.878 95.300 C 177.826 90.361,183.056 87.233,187.503 89.543 M212.374 89.206 C 217.019 91.147,217.532 97.990,213.231 100.649 C 207.725 104.053,201.134 98.196,203.904 92.359 C 205.300 89.417,209.308 87.925,212.374 89.206 M246.339 107.631 C 249.372 109.402,250.014 113.762,247.641 116.465 C 244.552 119.983,238.630 118.446,237.632 113.867 C 236.534 108.825,241.856 105.013,246.339 107.631 M60.787 181.415 C 57.194 182.429,54.954 185.460,52.668 192.400 C 49.856 200.936,40.533 234.517,40.536 236.101 C 40.544 240.944,45.111 243.962,48.895 241.624 C 50.528 240.614,52.070 236.660,53.714 229.267 L 53.877 228.533 62.894 228.533 L 71.910 228.533 73.134 232.600 C 75.649 240.960,76.675 242.411,80.058 242.394 C 84.274 242.373,86.495 238.201,85.095 232.933 C 84.083 229.125,74.116 195.154,73.191 192.362 C 70.147 183.169,66.373 179.838,60.787 181.415 M234.533 181.445 C 230.362 183.307,230.510 190.647,234.751 192.250 C 235.176 192.411,237.514 192.533,240.151 192.533 L 244.800 192.533 244.800 213.551 C 244.800 227.574,244.897 235.092,245.091 236.140 C 246.481 243.662,254.045 244.658,256.589 237.654 C 257.004 236.510,257.045 234.468,257.056 214.467 L 257.067 192.533 261.716 192.533 C 266.665 192.533,267.407 192.396,268.634 191.250 C 271.573 188.504,270.683 182.698,267.116 181.350 C 265.912 180.895,235.567 180.983,234.533 181.445 M325.733 181.455 C 322.465 182.653,322.556 181.845,322.461 210.667 C 322.367 239.350,322.412 239.921,324.886 241.719 C 325.977 242.512,329.239 242.505,330.314 241.709 C 332.624 239.997,332.860 238.910,333.044 229.143 L 333.200 220.820 337.867 229.004 C 343.697 239.228,344.510 240.342,347.120 241.692 C 350.659 243.522,354.477 239.116,352.975 234.933 C 352.790 234.420,350.456 230.550,347.786 226.334 C 345.117 222.117,342.933 218.567,342.933 218.444 C 342.933 218.321,344.625 216.190,346.693 213.710 C 352.396 206.870,352.782 206.176,352.240 203.735 C 351.446 200.159,348.029 198.426,345.337 200.235 C 343.943 201.171,342.662 202.761,337.333 210.170 L 333.200 215.917 333.066 200.958 C 332.934 186.201,332.924 185.980,332.330 184.511 C 331.184 181.677,328.509 180.437,325.733 181.455 M306.758 181.882 C 304.351 183.424,304.278 184.309,304.274 211.867 C 304.271 236.291,304.332 237.815,305.411 239.986 C 307.275 243.739,312.707 243.115,314.320 238.962 C 314.903 237.459,315.215 189.692,314.663 186.393 C 313.932 182.024,310.021 179.792,306.758 181.882 M66.377 206.200 C 68.194 213.130,69.737 219.010,69.805 219.267 C 69.921 219.702,69.465 219.733,62.933 219.733 L 55.938 219.733 56.089 219.133 C 57.666 212.883,62.836 193.600,62.936 193.600 C 63.011 193.600,64.559 199.270,66.377 206.200 M99.148 199.697 C 86.738 203.804,84.916 233.766,96.658 240.647 C 102.095 243.834,109.903 241.690,113.096 236.133 L 113.862 234.800 113.862 237.067 C 113.863 247.777,110.955 250.448,101.200 248.699 C 95.177 247.619,93.333 248.544,93.333 252.644 C 93.333 256.554,97.442 258.446,106.000 258.476 C 115.813 258.510,120.865 254.547,123.093 245.067 C 123.662 242.647,124.000 207.427,123.481 204.622 C 122.871 201.322,121.555 200.000,118.881 200.000 C 115.698 200.000,114.463 201.391,113.789 205.733 C 113.721 206.173,113.620 206.103,113.213 205.335 C 110.725 200.640,104.201 198.025,99.148 199.697 M142.991 199.572 C 131.133 202.564,125.542 220.128,132.166 233.582 C 137.993 245.416,155.131 246.239,162.302 235.029 C 167.599 226.749,166.895 212.411,160.824 204.908 C 157.119 200.329,149.284 197.985,142.991 199.572 M187.998 199.449 C 185.389 200.243,182.498 203.724,182.385 206.210 C 182.377 206.388,182.136 205.633,181.850 204.533 C 180.599 199.726,176.143 198.271,173.141 201.689 C 171.692 203.339,171.695 203.294,171.784 221.467 L 171.867 238.267 172.667 239.850 C 174.511 243.501,179.320 243.360,181.200 239.600 L 182.000 238.000 182.155 227.200 C 182.368 212.427,182.871 211.162,188.985 210.028 C 193.074 209.270,194.257 208.008,194.263 204.400 C 194.270 200.329,191.723 198.316,187.998 199.449 M207.824 199.595 C 201.548 200.733,198.179 203.958,199.063 207.982 C 199.614 210.492,201.158 211.005,204.717 209.861 C 213.747 206.959,217.047 208.064,217.516 214.147 L 217.679 216.267 215.173 216.269 C 202.160 216.280,196.267 220.803,196.267 230.780 C 196.267 243.267,210.089 247.622,216.823 237.257 L 217.826 235.714 218.013 237.209 C 218.705 242.747,224.104 244.457,226.400 239.866 L 227.067 238.533 227.150 226.267 C 227.251 211.384,226.962 208.874,224.702 205.018 C 221.865 200.176,215.641 198.176,207.824 199.595 M278.010 199.497 C 272.139 200.352,268.798 203.071,268.801 206.991 C 268.803 210.437,270.419 211.160,274.933 209.734 C 283.574 207.006,286.830 208.160,287.148 214.067 L 287.267 216.267 284.760 216.267 C 271.716 216.267,265.263 221.569,265.949 231.724 C 266.769 243.876,280.830 247.244,286.893 236.741 L 287.655 235.421 287.803 237.052 C 288.449 244.174,295.786 244.384,296.809 237.309 C 297.138 235.033,297.132 215.941,296.802 213.067 C 295.551 202.194,289.498 197.823,278.010 199.497 M110.128 208.631 C 115.465 212.163,114.876 229.984,109.321 233.057 C 103.210 236.438,98.770 227.680,100.522 215.698 C 101.533 208.785,105.713 205.710,110.128 208.631 M149.675 207.836 C 155.842 210.487,156.630 229.581,150.743 233.701 C 146.492 236.676,142.183 233.390,140.933 226.220 C 138.940 214.791,143.508 205.184,149.675 207.836 M217.496 225.758 C 217.096 231.951,214.684 235.467,210.839 235.467 C 206.814 235.467,204.399 230.665,206.412 226.667 C 207.681 224.145,210.382 222.982,215.039 222.951 L 217.679 222.933 217.496 225.758 M287.200 225.030 C 287.200 231.300,284.577 235.440,280.591 235.461 C 275.069 235.489,273.447 227.307,278.388 224.341 C 280.196 223.255,281.355 222.998,284.600 222.962 L 287.200 222.933 287.200 225.030 " stroke="none" fill="#fbc675" fill-rule="evenodd"></path><path id="path1" d="M170.427 57.249 C 168.420 57.524,167.385 59.184,168.122 60.948 C 169.297 63.760,175.855 62.753,175.855 59.761 C 175.855 57.626,173.988 56.762,170.427 57.249 M156.016 61.484 C 144.638 67.592,137.046 79.749,136.763 92.312 C 136.702 95.001,137.046 95.776,138.514 96.260 C 140.714 96.986,141.722 95.716,141.998 91.867 C 142.811 80.548,148.893 71.354,159.322 65.677 C 161.615 64.429,162.215 63.349,161.479 61.798 C 160.586 59.915,159.097 59.830,156.016 61.484 M247.462 85.800 C 245.711 87.378,245.935 88.097,249.246 91.521 C 257.060 99.605,260.337 109.862,258.301 119.867 C 257.549 123.562,258.157 125.067,260.400 125.067 C 262.854 125.067,263.874 121.764,263.857 113.867 C 263.838 104.384,260.539 95.833,254.337 89.186 C 250.487 85.059,249.062 84.357,247.462 85.800 M177.929 95.200 C 177.929 95.713,177.983 95.923,178.050 95.667 C 178.118 95.410,178.118 94.990,178.050 94.733 C 177.983 94.477,177.929 94.687,177.929 95.200 M190.729 95.200 C 190.729 95.713,190.783 95.923,190.850 95.667 C 190.918 95.410,190.918 94.990,190.850 94.733 C 190.783 94.477,190.729 94.687,190.729 95.200 " stroke="none" fill="#fce4bc" fill-rule="evenodd"></path><path id="path2" d="M233.017 77.133 C 234.483 85.357,232.998 96.684,229.550 103.582 C 222.374 117.938,203.006 127.286,186.400 124.408 C 178.386 123.018,174.986 122.929,170.815 123.996 C 166.371 125.133,162.106 128.115,160.077 131.504 C 159.173 133.015,149.544 155.707,149.664 156.047 C 149.702 156.156,154.822 153.297,161.042 149.693 L 172.350 143.140 175.175 143.444 C 194.440 145.518,208.340 142.170,220.025 132.642 C 236.292 119.377,242.155 95.480,233.708 76.867 C 232.598 74.421,232.538 74.444,233.017 77.133 " stroke="none" fill="#bcac84" fill-rule="evenodd"></path><path id="path3" d="M156.923 89.224 C 151.781 91.050,151.231 98.367,156.052 100.826 C 160.332 103.010,165.346 99.976,165.327 95.214 C 165.310 90.823,161.024 87.768,156.923 89.224 M182.459 89.192 C 178.826 90.326,177.107 94.451,178.774 98.031 C 180.944 102.693,187.856 102.693,190.026 98.031 C 192.421 92.887,187.824 87.517,182.459 89.192 M207.713 89.213 C 204.195 90.297,202.443 94.641,204.146 98.059 C 207.127 104.041,216.106 101.843,216.065 95.142 C 216.039 90.769,211.990 87.895,207.713 89.213 M240.931 107.431 C 236.009 109.667,236.828 116.928,242.135 118.106 C 245.020 118.747,248.055 116.849,248.785 113.949 C 249.928 109.409,245.205 105.489,240.931 107.431 " stroke="none" fill="#fcfbfb" fill-rule="evenodd"></path><path id="path4" d="M169.933 57.250 C 170.190 57.318,170.610 57.318,170.867 57.250 C 171.123 57.183,170.913 57.129,170.400 57.129 C 169.887 57.129,169.677 57.183,169.933 57.250 M174.852 61.742 C 174.440 62.104,174.209 62.400,174.339 62.400 C 174.468 62.400,174.856 62.100,175.200 61.733 C 175.997 60.885,175.821 60.889,174.852 61.742 M170.333 62.593 C 170.810 62.652,171.590 62.652,172.067 62.593 C 172.543 62.534,172.153 62.485,171.200 62.485 C 170.247 62.485,169.857 62.534,170.333 62.593 M161.427 63.969 C 161.208 64.548,160.688 64.983,159.497 65.585 C 158.600 66.037,157.867 66.468,157.867 66.541 C 157.867 66.614,158.584 66.312,159.461 65.869 C 161.003 65.091,162.019 64.056,161.821 63.464 C 161.769 63.306,161.591 63.533,161.427 63.969 M147.327 67.800 L 145.200 70.000 147.400 67.873 C 148.610 66.703,149.600 65.713,149.600 65.673 C 149.600 65.478,149.303 65.757,147.327 67.800 M151.183 71.667 C 149.491 73.411,147.321 75.889,148.555 74.667 C 149.952 73.283,153.407 69.600,153.308 69.600 C 153.242 69.600,152.285 70.530,151.183 71.667 M144.634 70.733 C 143.846 71.632,143.386 72.267,143.523 72.267 C 143.589 72.267,144.030 71.787,144.501 71.200 C 145.417 70.061,145.509 69.734,144.634 70.733 M141.200 75.733 C 140.972 76.173,140.846 76.533,140.920 76.533 C 140.993 76.533,141.239 76.173,141.467 75.733 C 141.694 75.293,141.820 74.933,141.747 74.933 C 141.674 74.933,141.428 75.293,141.200 75.733 M145.187 79.758 C 144.953 80.212,144.808 80.630,144.866 80.688 C 144.924 80.746,145.171 80.375,145.415 79.863 C 145.963 78.713,145.773 78.625,145.187 79.758 M247.180 85.800 L 246.533 86.533 247.333 85.867 C 247.773 85.500,248.183 85.170,248.244 85.133 C 248.306 85.097,248.236 85.067,248.091 85.067 C 247.945 85.067,247.535 85.397,247.180 85.800 M250.533 85.501 C 250.680 85.641,251.880 86.768,253.200 88.005 L 255.600 90.255 253.733 88.307 C 252.707 87.237,251.507 86.110,251.067 85.804 C 250.627 85.498,250.387 85.361,250.533 85.501 M246.400 88.694 C 246.400 88.831,247.630 90.141,249.133 91.605 L 251.867 94.267 249.200 91.475 C 247.733 89.940,246.503 88.630,246.467 88.564 C 246.430 88.498,246.400 88.557,246.400 88.694 M136.616 91.867 C 136.617 92.747,136.667 93.075,136.727 92.595 C 136.786 92.116,136.785 91.396,136.724 90.995 C 136.663 90.595,136.614 90.987,136.616 91.867 M141.949 92.933 C 141.951 93.813,142.001 94.141,142.060 93.662 C 142.119 93.183,142.118 92.463,142.057 92.062 C 141.996 91.661,141.948 92.053,141.949 92.933 M165.406 95.200 C 165.406 95.860,165.458 96.130,165.522 95.800 C 165.585 95.470,165.585 94.930,165.522 94.600 C 165.458 94.270,165.406 94.540,165.406 95.200 M203.273 95.200 C 203.273 95.860,203.325 96.130,203.388 95.800 C 203.452 95.470,203.452 94.930,203.388 94.600 C 203.325 94.270,203.273 94.540,203.273 95.200 M252.383 95.288 C 252.794 95.826,253.184 96.267,253.250 96.267 C 253.435 96.267,252.281 94.707,251.939 94.496 C 251.773 94.393,251.973 94.749,252.383 95.288 M260.054 97.461 C 260.373 98.118,260.680 98.609,260.736 98.553 C 260.856 98.433,259.779 96.267,259.598 96.267 C 259.530 96.267,259.735 96.804,260.054 97.461 M153.600 99.017 C 153.600 99.063,153.990 99.453,154.467 99.883 L 155.333 100.667 154.550 99.800 C 153.820 98.992,153.600 98.811,153.600 99.017 M242.733 106.850 C 242.990 106.918,243.410 106.918,243.667 106.850 C 243.923 106.783,243.713 106.729,243.200 106.729 C 242.687 106.729,242.477 106.783,242.733 106.850 M258.752 114.133 C 258.752 115.087,258.800 115.477,258.860 115.000 C 258.919 114.523,258.919 113.743,258.860 113.267 C 258.800 112.790,258.752 113.180,258.752 114.133 M257.867 123.704 C 257.867 123.957,259.170 125.199,259.274 125.045 C 259.316 124.984,259.016 124.611,258.608 124.217 C 258.200 123.823,257.867 123.592,257.867 123.704 " stroke="none" fill="#fcd89f" fill-rule="evenodd"></path></g></svg>